<mxfile host="Electron" agent="Mozilla/5.0 (Windows NT 10.0; Win64; x64) AppleWebKit/537.36 (KHTML, like Gecko) draw.io/28.0.6 Chrome/138.0.7204.100 Electron/37.2.3 Safari/537.36" version="28.0.6" pages="2">
  <diagram name="Solucion General" id="rI8Aj40bpTlfV1FE2dxL">
    <mxGraphModel dx="3432" dy="2754" grid="1" gridSize="10" guides="1" tooltips="1" connect="1" arrows="1" fold="1" page="1" pageScale="1" pageWidth="827" pageHeight="1169" math="0" shadow="0">
      <root>
        <mxCell id="0" />
        <mxCell id="1" parent="0" />
        <mxCell id="l5LGKJKSiI5G8VzKL6Wc-2" style="edgeStyle=orthogonalEdgeStyle;rounded=0;orthogonalLoop=1;jettySize=auto;html=1;exitX=1;exitY=0.5;exitDx=0;exitDy=0;entryX=1;entryY=0.75;entryDx=0;entryDy=0;" parent="1" edge="1">
          <mxGeometry relative="1" as="geometry">
            <mxPoint x="90" y="120" as="sourcePoint" />
            <mxPoint x="90" y="130" as="targetPoint" />
          </mxGeometry>
        </mxCell>
        <mxCell id="twCWT0G4kdYLpI0i5w0t-42" value="&lt;div&gt;&lt;font style=&quot;font-size: 36px;&quot;&gt;&lt;br&gt;&lt;/font&gt;&lt;/div&gt;" style="rounded=0;whiteSpace=wrap;html=1;align=left;" parent="1" vertex="1">
          <mxGeometry x="-370" y="-1090" width="2380" height="1200" as="geometry" />
        </mxCell>
        <mxCell id="twCWT0G4kdYLpI0i5w0t-43" value="&lt;font style=&quot;font-size: 36px;&quot;&gt;Static Content&lt;/font&gt;&lt;div&gt;&lt;font style=&quot;font-size: 36px;&quot;&gt;&lt;br&gt;&lt;/font&gt;&lt;/div&gt;&lt;div&gt;&lt;font style=&quot;font-size: 36px;&quot;&gt;&lt;br&gt;&lt;/font&gt;&lt;/div&gt;&lt;div&gt;&lt;font style=&quot;font-size: 36px;&quot;&gt;&lt;br&gt;&lt;/font&gt;&lt;/div&gt;&lt;div&gt;&lt;font style=&quot;font-size: 36px;&quot;&gt;&lt;br&gt;&lt;/font&gt;&lt;/div&gt;&lt;div&gt;&lt;font style=&quot;font-size: 36px;&quot;&gt;&lt;br&gt;&lt;/font&gt;&lt;/div&gt;&lt;div&gt;&lt;font style=&quot;font-size: 36px;&quot;&gt;&lt;br&gt;&lt;/font&gt;&lt;/div&gt;" style="rounded=0;whiteSpace=wrap;html=1;align=left;" parent="1" vertex="1">
          <mxGeometry x="398" y="-940" width="970" height="320" as="geometry" />
        </mxCell>
        <mxCell id="twCWT0G4kdYLpI0i5w0t-44" value="&lt;div&gt;&lt;font style=&quot;font-size: 36px;&quot;&gt;API&lt;/font&gt;&lt;/div&gt;&lt;div&gt;&lt;font style=&quot;font-size: 36px;&quot;&gt;&lt;br&gt;&lt;/font&gt;&lt;/div&gt;&lt;div&gt;&lt;font style=&quot;font-size: 36px;&quot;&gt;&lt;br&gt;&lt;/font&gt;&lt;/div&gt;&lt;div&gt;&lt;font style=&quot;font-size: 36px;&quot;&gt;&lt;br&gt;&lt;/font&gt;&lt;/div&gt;&lt;div&gt;&lt;font style=&quot;font-size: 36px;&quot;&gt;&lt;br&gt;&lt;/font&gt;&lt;/div&gt;&lt;div&gt;&lt;font style=&quot;font-size: 36px;&quot;&gt;&lt;br&gt;&lt;/font&gt;&lt;/div&gt;&lt;div&gt;&lt;font style=&quot;font-size: 36px;&quot;&gt;&lt;br&gt;&lt;/font&gt;&lt;/div&gt;" style="rounded=0;whiteSpace=wrap;html=1;align=left;" parent="1" vertex="1">
          <mxGeometry x="398" y="-540" width="970" height="320" as="geometry" />
        </mxCell>
        <mxCell id="twCWT0G4kdYLpI0i5w0t-45" value="" style="rounded=0;whiteSpace=wrap;html=1;" parent="1" vertex="1">
          <mxGeometry x="1392" y="-940" width="456" height="710" as="geometry" />
        </mxCell>
        <mxCell id="twCWT0G4kdYLpI0i5w0t-46" style="edgeStyle=orthogonalEdgeStyle;rounded=0;orthogonalLoop=1;jettySize=auto;html=1;exitX=1;exitY=0.5;exitDx=0;exitDy=0;startSize=6;entryX=0;entryY=0.5;entryDx=0;entryDy=0;" parent="1" source="twCWT0G4kdYLpI0i5w0t-50" target="twCWT0G4kdYLpI0i5w0t-58" edge="1">
          <mxGeometry relative="1" as="geometry">
            <mxPoint x="398" y="-780" as="targetPoint" />
            <Array as="points">
              <mxPoint x="138" y="-586" />
              <mxPoint x="138" y="-792" />
            </Array>
          </mxGeometry>
        </mxCell>
        <mxCell id="twCWT0G4kdYLpI0i5w0t-47" value="&lt;font style=&quot;font-size: 28px;&quot;&gt;HTTP GET&lt;/font&gt;" style="edgeLabel;html=1;align=center;verticalAlign=middle;resizable=0;points=[];" parent="twCWT0G4kdYLpI0i5w0t-46" vertex="1" connectable="0">
          <mxGeometry x="0.6265" y="1" relative="1" as="geometry">
            <mxPoint x="-260" y="-17" as="offset" />
          </mxGeometry>
        </mxCell>
        <mxCell id="twCWT0G4kdYLpI0i5w0t-48" style="edgeStyle=orthogonalEdgeStyle;rounded=0;orthogonalLoop=1;jettySize=auto;html=1;exitX=1;exitY=0.5;exitDx=0;exitDy=0;startSize=6;" parent="1" source="twCWT0G4kdYLpI0i5w0t-50" target="twCWT0G4kdYLpI0i5w0t-61" edge="1">
          <mxGeometry relative="1" as="geometry">
            <Array as="points">
              <mxPoint x="138" y="-586" />
              <mxPoint x="138" y="-391" />
            </Array>
          </mxGeometry>
        </mxCell>
        <mxCell id="twCWT0G4kdYLpI0i5w0t-49" value="&lt;font style=&quot;font-size: 28px;&quot;&gt;HTTP GET-POST&lt;/font&gt;" style="edgeLabel;html=1;align=center;verticalAlign=middle;resizable=0;points=[];" parent="twCWT0G4kdYLpI0i5w0t-48" vertex="1" connectable="0">
          <mxGeometry x="0.649" y="-6" relative="1" as="geometry">
            <mxPoint x="-203" y="-25" as="offset" />
          </mxGeometry>
        </mxCell>
        <mxCell id="twCWT0G4kdYLpI0i5w0t-50" value="SPAÂ &#xa;(Single Page Applicaction)" style="shape=image;verticalLabelPosition=bottom;labelBackgroundColor=default;verticalAlign=top;aspect=fixed;imageAspect=0;image=data:image/png,iVBORw0KGgoAAAANSUhEUgAAAGsAAABcCAIAAADmotxOAAAUPUlEQVR4Ae2cB3TUVrqA97z3TvYkL+VkU0gP2SRsCGGTF8JLNhvykkBCCyQsJWCKQzMlpEAgzQHjCjbGNsXg3gvGjW5TTTEYN2wM9ng89vReJE3RjEYzkl40V5bHY8msU3DD5z/y1X+LdD/9t+n+mj9Rd/5+G4E//bbsd3JTdwj+ViO4Q/AOwd9K4Lfm57VBN0HJTO68GnvICevybHhJxvCSLwvMuytsF0VOi4Mke4XMS7DsJvbVQfNwA9ezvhHlVpHe1QtDboJNKnx5NtKzuGGo8c+AY87YMBevIXIQdBPUdyWWIQNrTR6yvtAMhO2O/DPhdQcY/TeFZv/Mrj7qm87E6w4grL5RgfOZIQdBjdm9Jm/oGGB+rV1idAPZcpSxjJU5yNlWDChbNK5VuUx9/TPhZrUL6E8JMFafU23vA8EbKtfKnKFD8GQLxlY+otwK2lZALnJTxfRuNoxcm99F0OJgGux1Jc5aUtgJK1uIT4DDBu8QBIy8CYYOZ4IFdXYF5AYS5NWKz7c5gbJN51rd2Wv5Z8KtWhfQn211sq14WBP8XYbEOwS7htpfB/QOwdtOcEUOsjgDviMsgZC+jiQswWXZyIYi8/CUdQXmJZmMGfWNYJPKtTwHWZQBL8qAg09YETsxPOWK2BmQ18XBZxrInnLMB5tU+LJseGE6tDAdCivjnUmyRQzVQKMSD8hlOGw9zsuBi6ASX5oNL0iDFqRBocOb4MpchkNQnwheV+L+WdD8NNP8NFNImWWomtgt69WgxJfnMhy2HOflwGGD15X44kxoXqppXqop+ARvzlvewWBP0KDAl+YwHDYf4+XAQbBRiS/KNM1JMc5JMQYdNw92EL/6/hsU+OfZEOAQeJSXAzfBhRmm2SnG2SnGLcOY4DUF7p/NcPipTwQblPiCdOOsZFo2H+Nl/6uf7WDJWK/AF2eZAIcfjyB8t81hgw0K/LN04ydJhk+SDIHHeHPylThk9PVyfGEmw+H7PhG8pnDOSzPOTDLMHO4EnX6ZDIfvD/NaEocNXlM456QZPk7Uf5yo//Eob84hY2t8FamTOxdkMBw2HYb5knETnJ1qmJ6gn56g/4HfevlKHDL6Ornzs3SGw8ZDfSFYr3DOStFPTdBNTdB9f4Q355AhxVeRWrlzbroBcNhQCvEl47DBernz02T95H26yft0vVgvX4lDRl8ro3szwGF9nwjWybGZybqP9mk/2qfddJiX/ZAhxVeRGplzdqoecFhfYuJLxmGDdXJsRqLuw3jth/HajYeGNcFZKXrA4evivhCslWHTE7UT92om7tVsKOXNyfdMhoy+WoZ9kqwDHL4q4uXAYYO1Mmxqgvb9PZr392h6sd4hQ4qvItVSbGaSDnBYV2jkS8ZBsEaGTdmvfW+P5r09mm/42z9fiUNGf1WKzUhiOHzRV4If7ddM2K2esFv91fAmOD1RCzis7RPBahn24T71O7tU7+xSfVnMa71Dxtb4KnJVik1N1AAOqw8a+JJxtOJqGTYxXv12nPLtOOUXRbw5+UocgHq7k0TsBPBFtWKkzcnrDOh981VSbHICw2FVnwhelTrej1e9Fad8K065dpATJEiqQYH/dMiy97zN6SJJksqrtW8sNp8XOnG3Ny6OcL0Cm5KoBhxWFug5UnhUHDZ4Vep4b6/yzVjFm7GKNYW8OflK7Ec9QVIGK2HHGROzYmTqZXRpFu2wsK3cinkIplxGl2TA/hnw9pNWNdJF0WAlHJ0ZQRVIkipstE5NVL8Zq1hxQMdXLw6CVVLHu3uU42MU42MUqwcJQZKk5JA7r9aeX+uwYTRBCCX2nrexXjI+BIF+6zEL6yNdL8PTrqCNCtxFdGNVJXUsytUuL+gjwXf2KMbFyMfFyAMGCcGCOvvqPGRZFqyAaLNyusnkStTf6/sDToJLMuBNJWaVxxIxFxl/3rYsC448aTVYuyiSFKUyu4NP8a7NuG3wn7sVr++Uv75THnBwQLdiN0GJ9O6Q47Rn6tIs+HKHE9jPRZFzmafx9m6DoDknV6JON222asS9yuNIuKnY/EvviXuUoECQoJtxdp5wELwicby9S/FatOy1aNkKfuvtLKE//5c1Y+sLmU82ok7ZCE8H2Kx2sV69tyS4JANekYOcaWXQH2lygCyr85Ciaw6fnpGzqtwE39olfzVa9mq0rJf2z1nc7VS6CLLwmmN1PrIkEw7IRYC7PeYiw8qsrM8VG/BuxaySDSzNRiwOuuWSJPVtsXlxBvx5FrzlmEVv6Rpq+KrGQfCyxPG/cfKxO2Rjd8iW8Y9BfCXeBj1JUqC/JylKZyGKGxzZ1XbUM8url+Or8zhc93onuDgDzq+zgzLLmrE95201Utzp+YaEpJhr8dWLk6B9fKxsTJR0TJT08wNavpz9qK+WOJMqUQjt6u/BDIYgqT0VtsXp8KIeEtE5m0muRHvGLkqHf+kNxEba4hw46d14z7c5Ey6i7AypZ605CFZK7ONiZS9HSV8ekASViHtpNuyXDgXkwWXNDggl3F0kKbODvNTuTKxEvys1f1GABOTBK3LpJrn9FDMfTL2C+mfBy3Pglbnw2gPI14VI1GnryRZMhXiVQlF2nBRoXSEnLH7pkF86lF2Deo0r3TByE3w9Rjo6UjI6UuKfr+mWvL9PIJSIKLfMTzUB8UuDNhYjFW1dX4ywN4i7KYONEOpcTSr8osjZqMQBaKHWdUHkvKbAf/kQR2MmOFd4iJ2IPGX5PAvqulA6dEGEcX6jyEHwktj+2k7pqO2SUdsli/MGEEGSpIob7PPTTXNTu8nRGw4ALrfWXidzerdBFugtAyK969B1h8nTMzhwckE65HOVr4oQiYljYOEm+Gq05MVt4he3iRflDiCCKsS9JItxiQIOQXNSjPPTTKDaYqOLVf54GMm4ip5odjQo8TadSw65dRYCzHUsGKmA3e0Gl0CLn211HG6yR5y0+GUwxZY2Ml9/hZaZ2dLYQPxFDj9MboJjoyXPR4ifjxD7DRiCBEkFl5mBF4v3cVMpAj68PHbT4a1nw7NTjMtzoYiTFrNnvlLe4liRC32WxjjEsMlAYF0hDECfEnCU5pdhEht9v5TlIHhRbH9lh+SvER1/jejwy1Xf0v5vTwLPHiztyuMjSZdtboJyE9SOMxafKO/T7w7BiJ0eK0qv2731PuFPkw1gkQehxNxUxmnGO82mQ75OHNwEX46SjAzvGBneMT9nQBB0EVRchWVGosFHZiUbylvoTlBvda8vgX1ivU83ljIESxpRb71PeGai4ZSALhB1knwFtum6mSEHwQsd6EtR4mfC2p8Ja/8sW3V7TKz3q6gQ9xeFEHBE8T7OTTNcldILMoEWX5hl9I7yCW/oJFjciPpE+ZzuvmAhSYpe25w0+0SB08wam/egzE3wb5Hip8Panw5rnzcwCBptROAxeHqCbur+buKXabipob+drpE5P07sFuWTcn0JBHtacVEj6hPlcxpchjhcpIsg91y0+ERNS9DNTNKfanWAvhI8dW6CoyI7ngptfyq0fW7WgLBBiqJwN3Va6Pi6GJqWoJu8nxH/HKMMottUucDBKjkDX5eYAMHCBpQzAavceAiCPFsCefU2Vjl5v25eumHvJYvG7Duh4SB4vgN9YXvH4yGix0NEs7OUvbev2xxrsBFFjeiibMOkeO2keO2KfCNY22XW2ICG7/hlEUPwYMMtUq4qMKo9mI4126cm6CbFaz9O1EWcRpo1OOevLXAT/Ou29sdCRI+FiP41MAgGnYBEetzV2XhwN1neYl+aa1hfYgK1ijgFA+cCvuO6QiOwwYJrNr40QO+Xqe/wTFkui7HF2fodZxEFzAwdBEnBdiK1ytqkYt6GURTXr0ZVdKDPbWsfEdw2IrhtVmb/26ANI9/bo5mVott1wdyiZRZn9CsAFynUMT8g8cMRCLgI8B3XHjRCnn7wQL2NLw3Qz0jSNnv6VgglvNusyeYuuGbzzzG8t0dzRtj1swscNljRjo6MaH9ka9sjW9s+zeh/gkI9Dra9392tnpGsDT8FN6m7TAB0Iwabu0qCJV62fFlsmrSPcRcAucBxdSfB/Hqbt54NT4zXrCk0xl8yV8swn9ZqsLnTqq3zM/UfxDMlH7hmY7svDoLn2tGnw0UPbRU+tFU4M0PBJu2vQJXEAba92eOE3aqAAsNJgd1g8+3XKfp1HnlT4zxyEz1yE42uQKIrkDUHDdtOw+Ad6vFmdEW+PqDA8MNRU3QFsuuCuajRdl3lSw1MCesVWHA5xPofsDeQdKXrAx1ugk+Gix4MEj4YJJyR3v8Ejzej/4hTckp8JfOxhkCHm1AOmj2fOuaZqfTUAw3mItv0OFj/1cixKQlqzuvuvti1MuEgeFZkeyKs7YEtrQ9saZ2eLue72G3TlwlQsHnd8xh4gnFKW1dseD9euTBbF30OrhQ7vDeJbnmfmIu8oXbuv4ysOqj/IF41JUF13TNQXJE4Ptyv6nnRN2MVuy50OUdzE3w8tO3+La33DwyCNXLsjRgFp2w4zLj1bDhk8E4wPlYxLUk9P0sbcFAfeNwYctJ0tNkG3no1qZ1R56DA48a1Rfr5WdppSWrvjG/EKD5MUDVr6X72TJv93b1Kn1hwegsbPCOyjQgV3rtZcO9mwdQ02S2f4R+dQGzCwdZrzyO7ERZUbuoZ663xz9OaUHo2lFlr8db3DE9LVgn19BBfJkDZXV+fZPnXeu0Hz4hsj4QI7/lZcM/Pgimp/U+Qoqi3dylfi5b3lEW5zDZO1Dm4Z6y3ZnEuQzCj1uKt7xmekaJuN9IEi67bxscqeiYYFyOvkjLvdPnmg7aHQ4R3/yy4+2fBuwmSP9rE/p3yVx7U/T1a1lPmZWpsTvqdVXqNuWest2ZRrsbk2erIuFXK2RkauWcKfaDB+noMx0UX5molJmYeyk1QoMdGhAr/HNjy58CWB7e21intnWuBf6eyf0iaU0J04n7lK1FSH5mRotKY6QVDSZPVJ8rn1C+HIZhebfaJ8jldlKvRWd1ugoq9AI/tfsXXY2Thp00KmF0c0ZXlGEkcLvKFKNFdP7X0r/x8spuzj8biWn9YPz5ODjYRwfH9/YobGnqb6arM8UYcs7/onYANL+gkmFptZpWcga8O6R0uEnOR3x7RswnGRktnpqkuS7oaL2spHAQpispvNN+7peW/fmruR3k+qs3HW4UkqXMidFWR9rWd0pciJS9FSsbFyk63oRRFtRmck5OUQMl5/CxLbfS04tRqhDMBq4yuoJ2MrBgxL0v9UqRkzA7pvCx1YhWitXLPN7kJugky6LTuns0t//Fjc3/Jf/7UXNHRtXhin7kZI4R65+Zyw9hoyahIcVYdPak2ou4FOeoXt4v5ZG6WChBMqUb40ry4XTxqu7jkBr2dZELd4+Okc7PUJ4Uo3YEyLokUGGTYm+FuxSDaTZClzZYJCeJXYkWjd/aPxFV2eXGLTXilxA55VcaMEek1SNF1C0HS+yRfH9K9sE3MJ3MyGYLJVxG+NC94tidveroFxEGcE6Fsh+ciSIHOubncmHi1azUCQHHboDdjvc2lNOP9It7LXqebXH5QsyRfXdBoAeMvuEl2lCu9YZ2arBizQ/xcREdP+VemEthg0lWkZ+xzER0v7xDPyVR9d0zv4+BBkJRA5ww+bZywTzY5SYF293PtzQa9IQ6QsN7qHhMteWG7+J97ZYlVMIp389NwEySKkybUfUVqDztj9MtT/y1K/Gx4B5BPM5RGG+24kViFsMrpqcqFeZpdl6Aqqd2C0V7APsvBSol9cb5mdJR4pOeppNX4GuAgI+gmqZDThpHh9AbO02HtL27vWFuiPdJsVXsmNHyP2WBzC3ROKcS8WDSh9KnJzj0sgEIgu3t/FTwpUf5M57WeDmuflqJQIF3TQPZyt27FbNKBEBDonO/Ey54MFbEyMqI9oIhxrFCbXU0azMH/y8ecVbBgRL3SkV2PlAuZgSu1GmbLB4Fnw9sP3bSy44l3OYOMIEVRlRL0yVB6D8db6hT0S2MrRrwURe/wfJQs//aoPrLCdEGMAgEvrCiKUiCuslZrZIUpssK0rlQ7NVX+bHj74yGikRHtJwT0KOx0k/NzVN6FPxEq2nelL37U3oAHZrjwunn0jo5Hg9tY+f6E3ukmCZLaesrwWEiXnk0wNVVu8PSD8ZchVukdmJ4m11ro5U2DyvE/cWI26olQ0TdHtL3Y9eCzQc/OJxl3yfRUWNvDW4VA/rFXItTTr6RqFY6/x3SwejYwJUUGCO69DLFK78CuSgjM+aLOG0eEdJU8JUWu6rWfHZQEKYrC3OT6I7onw0R/CRL+JYjmmFpDv/UkSGpVsQYovY8fJTMEd182eetB+NXYDrODHltQnBgT3QGUjwa3TUyS6azMRh1fcxysBCmKnkXnXjOP2y1+IEj4QJDw3QQpmCfKYPyteAlQssdJyTK9pxXvqjSxShAYvbOjVkEveAmS+rFcD5SPhAh/KNPreFZy3jQHMUEAsUmDjd8tvm8z/Ub9y8PMoFyndDwTIbpvcysrHyRJWYKs8r7NrQ9tFe6qNIFp+Xkx+nCw8L7NrY+GtBU1mX2m1t7UvMODmyCoidNNbjimHbVDdH9Qa5nQStCe/mRcpenhEOF/bxYAeS+RIRhbaWKVDwS1LilQWTB6Zm5E3Z9kyp8Mb5ucKrsi69oO9obFGR4KBMEO5zWVI+SMYWmhqt1EDyk2JxF/BRoRKrw7sOXuwJb/S5AAG4y5ZAKah4JbA8v1cOfUeluFYU2puqzVCnVqOHn1VA4RgqBi9LedqLvGMzcE/drZDtvj4cK7AlsmdBLcedF4V2DLvVsE0ReN7M662OSUQLjPy7SesDg1Q4ogZw2FBmdAiWpNqRqs5AqbzN+d0Ar0HO7/nNlvqRz6BAECM8Z8duIi6O+0f8e/4ULwd0TmU9Qdgj5A+nz6/2OJZ6IwV5ugAAAAAElFTkSuQmCC;fontSize=28;" parent="1" vertex="1">
          <mxGeometry x="-121" y="-632" width="107" height="92" as="geometry" />
        </mxCell>
        <mxCell id="twCWT0G4kdYLpI0i5w0t-51" style="edgeStyle=orthogonalEdgeStyle;rounded=0;orthogonalLoop=1;jettySize=auto;html=1;exitX=1;exitY=0.5;exitDx=0;exitDy=0;entryX=0;entryY=0.25;entryDx=0;entryDy=0;startSize=6;dashed=1;dashPattern=8 8;" parent="1" source="twCWT0G4kdYLpI0i5w0t-53" target="twCWT0G4kdYLpI0i5w0t-57" edge="1">
          <mxGeometry relative="1" as="geometry" />
        </mxCell>
        <mxCell id="twCWT0G4kdYLpI0i5w0t-52" value="&lt;font style=&quot;font-size: 28px;&quot;&gt;SIGN IN&lt;/font&gt;" style="edgeLabel;html=1;align=center;verticalAlign=middle;resizable=0;points=[];" parent="twCWT0G4kdYLpI0i5w0t-51" vertex="1" connectable="0">
          <mxGeometry x="0.2935" y="7" relative="1" as="geometry">
            <mxPoint as="offset" />
          </mxGeometry>
        </mxCell>
        <mxCell id="twCWT0G4kdYLpI0i5w0t-53" value="" style="shape=image;verticalLabelPosition=bottom;labelBackgroundColor=default;verticalAlign=top;aspect=fixed;imageAspect=0;image=data:image/png,iVBORw0KGgoAAAANSUhEUgAAAFcAAABfCAIAAAAS+cxWAAANYElEQVR4Ae2ciXMb5RnG+TtKcGznsB3b8ZWEEBpCCNBwtE1Lh3J1psNkIIUyYVoYkh50IAMTWighIeQOTkgIcchtx3Zsx4d86rBsXZYs3zpsy5J17kor7WrbvT/trqzDKycxZp7ZfPos7+r3vO9+Wq0e8wC+9B+OP7BkAr7kAtUES71A+LDkwpILzKK41At3oxcgDB8IYvIA1uZD6z3oRVekyhWp86BtPlQewExBDMKiTIUW7t8F6gU0iuth7KQjsms09PwgvHUA3mSAynWcNhmgrQPwrwaDb42FTsyEdTCGLZwJmV8dw1F8NITtHA2CzAnHFTpo52jQHMTCC9IZme0FRQD9yIqs13M1T8gPPuERA/SxDVFBaKatyJQLSBQ/6gg/aYQrgLYHCZMcV+igp4zwqZlwRp3IiAtuNPqpHVmXbguIGrTPhrgz5oT0Lowh2O7xUNpnAd8CbaCc1AYdtHssaM/MOiGxC65I9I/DqS2EBDaDOsegTOMv1/hfMkO+DHSElC6EovindmS96EKQBGe5NlCm8c+tco1/nyUo+TWFlC5UzoQ36ekGnhuG/mm/ryye+rxlgEr7vLTU3k0a73cORNqLCclcsCDRCmEl40H2+0BIalyq9pLylKoZ9XpKablLe0mp3KUq98Nqjzsi5VWVNC4Esej7YzBX2D4BpNpbRiohYSnJSWyVs5RKlLO0FLMlChel94f8iHTX2tK4oPRHtml9sYRM9YAalqrcJapZWiyb0lWipNlYSGIgd7JaK3cS6nGu7ZmhtFnp6vaGpTovJHAhiuP7xiGmhkzdQEimgBykPAayhCbkIAnUblaOtd2kuhxrOU1/POyTqh0kcCESjT6ncdOEBF4sYY+zhBZdRgBvhsbrBvGo8fTaTkLFrDqmimO1o3fGFZZmdZDAhXY3UpJE6Yq7ACSKLZaKgGyfKm6fBFUkmyRlL5IxarMXkSqR2TtnQ5KcFPN1IYrjbxu9ZKNOrxVydvILSKLGcBa3CzhlNCdJaytqI9VqK+JkLWq1FrZY9w7M3hMuBNBoaSdXwKL2SVpEDZnqUQO6hgxVG0dV2Gql1UKwMbIUtlgKm3maKLxDaA2pDa3We8KFUThC9SezZSC5utmKWunSMXgUJw/PQuGB2zVN43w1jq2JlQtB52/EfM8IlQchGzVNzsIkOAnshlGeCm6PUDL5JbiOnK8Ld2ZgtnpUlxLbZNgYsIKGUVoMGEtYUD/MV91QAan8uiFCtUPdLvju98JFm5/XoryirWkY5ahYThG8YQqP3VKQ+bVmTrfM+bQG82+Rqhm8bPHefRduTwfW3B5Zw+LdHuFXr364oI4SXUaCs5aWGKGZJcyvGQRkyq8mlAfqprF1OnD3XVDMBmNalOhSoHrUmCggUz2mhvk1g3mETLQ4NmNeNambxrwYDeTdoLX6xgCt6waDJ3j3XRgOIDFdGlO9wfya2NIRqDw25iFDSKESkNcN4rqmXw3IGYrcfRe8YawQRI2pHkN408iWkRskB0kDX9WtZrTqqo7WFW3JDf38LZDg21osir/UPs72p0j1gLpxNSSROB4K7Ip2lVCXNasArfyxH9QbHaP3hAs4jt+yevOEqMLSxUMFIClgkJMeX+pbyVOVelWVusHmuVdcCKLYo7XGmDIyYCsva2jF1pBg41Fd6ltZpaa0okpN62LvCp5+UK1g9PhN3UxQmlsM871qwnE8iuPvKSa4AgrxAEIOlYd3sZfF4wYXlCsA5V5Q5n6vzP1eQekvnSNB9J75ZI3jeKPNW3ZVwxLSJU2dcwUBGYOae17BSJ57ntQ5ee45efEPytpxaT5QSrA6UqelP4y+KRuma8hUjygdJaCAdCVpNgbsPAFGKedcD63venI4ded8151zltPOOyZIuhuwEpwRlBE9075YQgVYOhYy9xzIRo05No7zTHfOmS5Q2ZVdpDqzKwkZZyFJ1kVqJ5K58P8F4kP5WN55Re53PblcDXs4MLaSBGEsZGVXDimKkNh+C6oj+9uO7NO08s507leMSWiBZGcE9Zr8YfRdmXnFWYIwmxVZOg6PIyTZvo0hXH66ndap9uWcZMtPyZafJJR9sv3Pd4xuKa4XQR+l7AUcx63+0BNX1GQlGUimhtmn2wlxbAwniUdB0tsTsuUn2kBlHW8j1brxfPcUJM29xgy6gON4n8P3/LU+mjYh4fG25bRas46TOtaaFaOWrKOEso+1PH9FZXRJ8AkS5KfGEvcCtdNRD/xGgz77RBsNdhwEa8k6RopkowizjjZnHW1+6AhPdx76htPrtZoRtwQ3VIQWSLwugAeAwui7zcaVJ2VzcjaDnPT4cNNDsco71vJB80BQuvdF8HVS44z0gjMSbfKi/7EjL3RZH72sZqmWHW6i9XXjMp4ONSzj6eDtZYcaKi6qXu621ntQR2byGxlxYQzBPrIh203wz8kg3wvmYK0z9F7/5IrT7RzkwdvLBHrwq/oYHahbebJtb//kJUfoaSP8qAH+5SD8mT3siGQk6CVNL0AYrobQD60IL8W42QBfcEYMMNbuCe9R239xva+ssj3nyJ1lXzcQzAfqQC07dDvncGPp6bZnrvfv6bPL3IgBxo5Nh8F82AY99OVUeFDqBKAELhiD2N8tyGMDMD+SpIMqdNA/LAQMJQ2EXZuCDg84PtfY/iUf29Vqfq1e/1q9/k9t5g+6R//db/t6YPrqJNQPoeyvvDIkkg96zgR/YkdGQpL1xbxcCEXxE47wRj1BK7SAmnnSCLNI4EAPYzoI00KoFkJ1EKZnnAKfU+uJxNtzhQ7aboI7fBJ8JZP+e0QUx80hbK8lqUTnMUcYZEtyrIext8dC8cxl5/9pRWzIfJsinV5Ao3i1B/2NWaRX2RcHDp4xwRqIPimStMAAY01edKvYWQbuuVwHrddDr48Eh4PzutGQsgsYjrf60M2xWW7eKxM+vOgi1siUdHAqvCHp3OhGPdTpTz8CmJoLQQy/4Aw/pk8qoQiGF98bD6bUDqoA+sYIDO4h4fhZI9TiTfOufAouYFH8iiu8WefnUlxzRNhif7TDGGjxRgwwmqQaPZHHUj/QUwZ/py8dI1JwQQ9j23SC8BqQShSG99iZdX3es9NIkhYYYHS/Ncj+bkqDjf1efeoZ+mRdMMLoszofHTqkYmspbncO+g0Qmoz6/Og2rTe9Y5X1enaZA84UL7eTcsETie40+bjcIZdfEyba4s5UqGZb3WE9hCbUqcngfI5Vrpr9wpLa/bjELkRx/MwkvE7BpQ/ZGGKqgw+GfLpARD+n+v2RV/WeVPfMe36Fwtk4m8JVRGIXbCH0CZWTi+RR0cO0to8rnTI3MrcL1x3BLUoJDrdd7dL6k10pE7vwV6OHFzRM+2F55/SRiYDeH44nnT/82YivRJgATGtm94A7kNw1RAIX1F6kWDYpod7UuXq9SDwXer3I79VOqQ63rmOyy53UTcq5XAhi0T1GN5Ay5LJ5aU9u6ZpqcgbjuVAzDZfL7GnvXPiLL/XORKKJP2XM5YLGi2ztsAsSh4KEHj+SmOAJnw959D5EVO9onZIfrnoq8fvFXC58apotbBqXXNu7bH2ekNCFNidc1jwh+eFeVkzNJMpExnVhAo6sbx4XBtbmP1PYOHp2wqvzIjx9YnTNf+fCPZQ1jV2y+uY+K+K68JFhRiStJkzopTXzhx6bxhPSeTnJXfBvOy0ZOuIrPbbQnH9SIu6CL4w90TxWUGvOkDY1jdyw+UAXLk54H24cydDhCuuG1O65onDiLnQ6odI6c36NKUNac2twv8Gh8wRZfaidKsjY4fJrTHv6J4VfQ7AzIi5EcfyQyVkQL5IXL8WW4vyLsnGFC6Jc6HPD25qGY9ONQD4uxT2L7qeo2uQJx71JKeKCL4zt6pkQSavFy+alNb+2euCmxaNzB3Xu4JlhV15aO0npRV63xI2Cibgw6ke21g/yY3hsylC6wTs9E1o3rHXDTzcsxOF2yy3xlkgRF+ptnrwrWjBlmKFxyXWdbNp/dXx29YIc7tdNZisk/mcEIi7sVVpEYniiybV5T+7rs74vH1+Yw5Ve07ZO+tgVERyIuLC9zsBPGQrTahLNPHJDu61Gv2CHO6gTf6fguxBCsYKqXjBluJjGb7cPgy3AjvkuaF0BOptGhQsX1/apai1LDg74LlSZHUDKUJjKu79nVp2XB8SuGvgu7FeNgynDxTdusbrBLqDGfBdeqdWzycJFOfhcNZ7ABSiMbqlSAkFDJownjOfdtzM7bvQncMHshjac7+aCaVT0bnFtiyo7oAj/A0XMGdFj95RWdjCpNDpouMgerj7ZNiv4q4oYFzQOX3llu0j6Dsgd3u8/zTvR6he8TcS44AlFtpzr5GfweJG8+/zhjsvKBOsCjuNHVGPCGN6imck61CCbcCZ2IYJFf/ejHAzgLZpx1sH6vzUbhBaIp7sGXf4XL/U8+N9bP/tiUenVK4oJr3iSOmZdYH1ywchb1erSI40rv6rL+bL2vlbugbribxoOdJkj8e6xzP3/ALb54JtG+/eaiftal/XWIZc/ze8j2L74KQzEz4ifAjnIuOQC4caSC4QL/wOB/41946SbhQAAAABJRU5ErkJggg==;" parent="1" vertex="1">
          <mxGeometry x="-62" y="-182.5" width="87" height="95" as="geometry" />
        </mxCell>
        <mxCell id="twCWT0G4kdYLpI0i5w0t-54" style="edgeStyle=orthogonalEdgeStyle;rounded=0;orthogonalLoop=1;jettySize=auto;html=1;exitX=1;exitY=0.5;exitDx=0;exitDy=0;entryX=0.5;entryY=1;entryDx=0;entryDy=0;startSize=6;" parent="1" source="twCWT0G4kdYLpI0i5w0t-57" target="twCWT0G4kdYLpI0i5w0t-61" edge="1">
          <mxGeometry relative="1" as="geometry" />
        </mxCell>
        <mxCell id="twCWT0G4kdYLpI0i5w0t-55" style="edgeStyle=orthogonalEdgeStyle;rounded=0;orthogonalLoop=1;jettySize=auto;html=1;exitX=1;exitY=0.5;exitDx=0;exitDy=0;startSize=6;" parent="1" source="twCWT0G4kdYLpI0i5w0t-57" target="twCWT0G4kdYLpI0i5w0t-63" edge="1">
          <mxGeometry relative="1" as="geometry" />
        </mxCell>
        <mxCell id="twCWT0G4kdYLpI0i5w0t-56" value="&lt;font style=&quot;font-size: 28px;&quot;&gt;AUTH&lt;/font&gt;" style="edgeLabel;html=1;align=center;verticalAlign=middle;resizable=0;points=[];" parent="twCWT0G4kdYLpI0i5w0t-55" vertex="1" connectable="0">
          <mxGeometry x="-0.6236" y="3" relative="1" as="geometry">
            <mxPoint x="-33" as="offset" />
          </mxGeometry>
        </mxCell>
        <mxCell id="twCWT0G4kdYLpI0i5w0t-57" value="Microsoft Entra ID&#xa;(B2C)" style="shape=image;verticalLabelPosition=bottom;labelBackgroundColor=default;verticalAlign=top;aspect=fixed;imageAspect=0;image=data:image/png,iVBORw0KGgoAAAANSUhEUgAAAFwAAABXCAIAAAAGSrXMAAAMrklEQVR4Ae2ceVAUdxbHLfYQPJNUuUlM1ZrVHOvGmEoqa2W3kmwqm0QQgxKN0cTEaDZcImA0u4m7optDg4DXDDPcRkBFkcihcs2AMwMaBRWNElcczkGO4RjuOftttU2apq/pE/6RmqJ+vzddQ7/PfN/7vd/RTIL7PxQCkyiW+wa4D4VGBBMPxYZAnRXO9MD+Vgi7YXsl2xyq68mrG24fctHc77iYJhiK2QGHO+CzBggwoi/fS1YPpclDaZoa3/L6KbOmyTouEMh/ZCKhDLsgumUEBwkKhmZmYktx0zD5luXvTxiUHiccaB1DhKgUDIqH0jQ/o63irk1+DmP+wsRA6XdCYjuZCC0UD6Xp2aPtNd32MXctc2cCoLgATnVB4L0kgkUN/hvPKbhSsMZzx9qb+p0yoxj9+PGG4kCgsAdC6mhkwqQUD6Xp13GmlQVdXcPjNB6NKxQXgMbCSIQFiofS9FuV6b3CLrsLGf1CZWuNK5Rrg7Dll9EXDxligyl88GgK01uGHLJzGT8otcOwrYk+anAubqHMTGiJvtKPyIxlnKA0WuFfjW6IsIcPLpZp8S3Ha4dkCx30g8cDitkBMWOLNFwapIZbpWBoPFUtefXDTtn0IjuUQRccuEs/AJOIcFQKxuXpjDaDbEWdvFDsCEqE6jyThaNSMC5z01p7bbIM0jJCcSBwsguCGUoSWi68oHgoTS9kttdaHJLnFxmhnOmBTfU8ZMIePjPiTXNTTc+kNCxMuL0w6c68VNM0NVrULT/TKfkigyxQEAB9Hz8cmHBISvmV0vQbRdP8pPo/f6Wb4Rc/ebGC9Ho69NQL8bfCtGa7U8o4kgXK1QHYylqk0cYOSSmz4pse3vnjnMCTXkviSCxI3d+tPvRlyvneAckm09JDabVxKkloueBKmXfw1qP/yJq6VEXyn6n7gJ869sQVh0R6kRhKq310GY3WbXaj7yXr5DjTk3G3Zy5PYPKfyf7gMnVuhdElRbUrJZQOB+zhVqQxoXmnyvr4rkruAiEBemRFYra+VjwXKaHs41ykMUH5trrrifVpJFd5dZ9Y+335Ty0iB2lpoAy6IJluJY3Jeao9pA4SzVDWbtmcXPSgn5oXCNLFi0KO1bf2iuEiARSrC7I6IYhuJY3qPK0lyAiKdrg0DNq2nnitYUtKycy3uaZYEhGs+9fQ43daLIK5SABF18u2bkRLgWSMbIbKYai0olBUGr1Kow+OO+vlo6R1mKNx6bbcDovAybQoKE4ELvTBRj6FPAlHgBF2/EKECCVeU+7/1Q8c/ae9bOqSuHClbtAqZBIgHAoCcGXAzUoaFQHJsrMZdIOoRrAXrhSVRh9XbFj5TR6twxyNM5aqNinKbHbeK97CobTZhRdpGJqweijsGyVCVAoWRHElhte2Hvf0Jlf3HKFMXqyY4qPck1nFt6gTCKXZhsqe9LXz6m5ugBwLVP2iEapSMC67ssue/fQwdwrUK2e/m3REc4tX0hUCpd0OUeKKtNA6ONkzRiNMUNQafUyebvaqJKq33C2z303KrTBy58IbitUFSeJKkkAjpHaSNcIEBdPL3rzy2asSuVOgXvnYquTzN+4i3CYB/KAMuuD7DlElSYARks30RKg5BSOi0ujVGsM/vy9+wE948eK5WPFy2ImfG7u56IUHFDsCJzq5rrYy5Rd1O03UYDJhgXKPjmF7RhlVAtwtnt6KRSGZXIoXrlAQgLJeCBVXkuxugYohwVDQoi5IWSCy2F22Pa+1e5BdL1yhVPTBZkHrRrhktjfDuQE2Iu6UgkI5WKj325EtZpCe7qsK3l/KPkhzglI9CJvEaeTzRihn1Qh7osWTi0qjT9CWvxhyhHvUUK/08lF+nmBgEYt7KHVW2OFuuxOXA20jogFO97rRCHcoKo0+VXfhxY3pYvQyebFib9aVIRv9JMANlHY7fCWuSAswwplexuEGT7G8oKg0+th8/dPrD1FVwN3y6Mqko1r6oo4NSrcDdoojEmSEAm4a4QsFHaeLL0xf6mZNm53Rg8virxvN1NqFEcqACz2BJWaVJLgO0jrRVRKSHFi6xAkhMY8wtaNO6f/wQQq75+zvzlmTqrvWTFrBpIfiRNAijdfmHjWbJHTART5EuIw+VDpbU4tnvcN7lZtI6i+hx2839xDzLg0UB4KupFGd5G4JNEJMK1weO9ljEQj+Fl+lqDT6eK3hk32np/mKiqPXPjvZ0z96ZpcMBbl3Aiuc53Ynidc3LZwGYJwF3hAABR2kS8s/jM4TmV9W7DxtMvdjeiFDuT7IewOYRCSsHi5wKElwEMSGMChoTJUY/HaKKuqm+ChDDpQO3VupG4WCANwYFLvaurVRSNTgXIRD0egTtRWLQjOIyYJve4qPcvfRSofTNQqlzQ5fixuAtzRAwdiVNNxbjg0xUNBBuqTi5YhjfFkQr5/uG5dWXDOptrYWC6QchgO/pOhg6QbXQUbnhClFrTXsza2Y5S9qz2jyYsXzAUcmLVy4UKfTIQgSKa6Wx2HtaIYzfbwHY0xKwpSi1hq+O3Xu7cjsae7OJxBFwdSe5Z8wqbq62mazWZxiF0pwKAFGCK+H2FZ+ZZtgKGpN+ervcp5cJ6rkJwLy9FaM5JQuh6jChEgEb2+sg1wLj3JWSPFWVPFiiKjkSsSBt0egDLjE1q84C2IjqA4UbWj2Ja3aM+Vd7uETm69bF5M/421RNRtOYUzjrQOjo89/xQ09RBak9uYGSDFzkgwXKAna8sgjZfM+TJm6RNS+6hgQhINjU96KHYVyulvKtELiEmBE9xJLB9wkYHYoaq0hJl/35hcnmPyRxP5KeNYoFLND7G4OFQTJElYPynZ0mZYpmligKIsM6/flPSVdQqUl+MiKxKLKhlEoANBqh20cTtCTXOXVDbwnmePd9FyYoBw4U/F8UJpM8YLT+f3qlLzz6AGxMVAAwIbAoQ6IEDch5IJpfyuUUNaxqVBiT+s+PXAWv2+ZGjOWql6NyKpAd8vQSpYMBQCsLrg6gD4HSvtEGxeHOV4TUQ+pZviRsOZChJJUWhGeWLgw4LDIgypuOc7/OE2ZU20mHGahgYJV/cMuKOgRu9Hjlk6gEd050Q+MRBMORVlU/nLE0alSVKjsUJZtz2/u6CdtpzJCwdAYh+FgK4TJHE0hdRDfgR5UKW3v2V+g/yy5+PH3k9mdEf/uSxszM0p+xtwk/XYDBQCGXPBjv+wJOMAI/2mCqPJ6kdN/LrAeXpH4bcZFY4uFtDSLo3EPBbvUjkC6WexqC0s0hdc6Pko495hfFBevBF/j5aN8IfDINaMZ95+2wRUKADgRuDoIsXclnhCE3XF+mPvzq1vS5vnvkg+Kp7dywSfpezKruBzh5wEFg9rnRB+j3SxFlgk0wqbL3a9HnvzTmti5y3fNXS4jlE+iS27Udzq5PcHLGwqG5q4NPXEu+FwkOtjX2MILb+M4ZILi5a1csCE97zyPY0z0dQptmFGNVgR0vUK2ENENttLGNyNPYiCIv6UNnzlrUr9MLhdwyligUjBGLgCLE7JabeF1CEsSJb71ec2Qzzc5z3ywj8gCb0sI5fUt2ZW32tmPXFC/acwiCsoIGhdy1dSjvNn96WVLyC17MOU8+kYjElJj/cjQtuHIpefWHcQRUBvioXj5KJ9YeyjqWNUww4kCJhBEuwRQsI/rtAxk6m5uUGvfiCnyUevX5dasz7+1Nvunv+/XekeffSsy64/vxVApkCwioUxdEhe4V3ultoO6Z0702W1bMigA4HIh9Xe7V32ZPs9/95Mro9DXiiiS2+xdMVDmf5xmuG6yOyR4mFBKKNg3gCBI+tnL3mFJ7P7TvisMypw1qWGKc00dI5ueboXg9gLpoaCSQZA7zZ3fHS597v2RAoQWAdXIF4qXt9Lv33nnqpuFJVQmOrJAGZEMwMWbja8Fqeb576b6T2vhDsXTW/HQMnVczjUmx8TYZYSC3VZX7+C+o/pXAuJoKZCMHKE84Kdev6f4urspjGAuskMBAIfTddPYFhyVTUJA7XKBsigks7iqsXdQsqeQqezGAwr+V38o++lvgap5/ug0h/bFAsVzsWLWOwkh+0u7+mT/z2/jCgVBkP81duxIKnp+7V5eUKb7qvwj84urGnG+sjbGFQrmid3hvHij0TcimcqFVikPr0hMLbhpGbDK9k9kyIQnAAp2C/1Dtuj0cy+tP0gcm0hQHloWv/rrs3Xinqcle8yhP2FQsAq4sqYpPDZnwepoTDU4lGlL4t7Ymp2lu90nZ0Jl4jORULB7stmdpg7L9vjC97alP+YXtWBDus8XOYWXGrDjZ0z3Lat94qHI6p6wD78PhYbbfSj3odAQoDH9H9ydGRv4iqtAAAAAAElFTkSuQmCC;fontSize=28;" parent="1" vertex="1">
          <mxGeometry x="348" y="-140" width="95.17" height="90" as="geometry" />
        </mxCell>
        <mxCell id="twCWT0G4kdYLpI0i5w0t-58" value="Content Delivery Network" style="shape=image;verticalLabelPosition=bottom;labelBackgroundColor=default;verticalAlign=top;aspect=fixed;imageAspect=0;image=data:image/png,iVBORw0KGgoAAAANSUhEUgAAAHsAAABjCAIAAAA0IOjeAAAH+0lEQVR4Ae3dfUwb5x0H8E7T1HWapq3Kui5VlWnauk1rV3Va1kZr12xVuhdtWbqoWWjTpVXzonZZ1yxdlNhOaKCQ0YSEjLeQEsCYBEgaCASTLngMWAOYOFkI7wZsg9/wG3d+O/vO53umzRMKNIF7jO/x2fc8+v5x2Id/5nM/Hp/vznAPwAOtwD1oy+FqAIujbgIsjsVRC6Cuh3sci6MWQF0P9zgWRy2Auh7ucSyOWgB1PdzjWBy1AOp6uMexOGoB1PVwj2Nx1AKo6+Eex+KoBVDXwz2OxVELoK6HexyLoxZAXQ/3OBZHLYC6Hu5xLI5aAHU93ONYnJ9AOMJZCHbQGlEPhE52BfP+HpA3+WJRNPvyNYGSzqCql/rXOG1wsSQVjXL8Hlf4tVKvxymG+8cona8J7G3wbqshf19FLJKtSuJP57zZrX5lD9VvYSJR4UWXqpBK4kGaa74VfqPWuwjxIndtVRJH2wIuf5L7PTXEKYbrMTAHL/m2Khfr6EW45+7acYas0VImD8slaZ5JAXErGc3XBLYvNYHMmS65sFVJvHPB22dilpoABLlf1OIcB+xedv9F35KI8a3QMhCmWdStLl5xhgU9BvqP9Uu8NsZnHfuu7TVkVQ8VpJGii1f8mon5Q52A3DH0V5VEvibAItx5FKM4B4DJw+6qi3OfJI6u//BGiGEFmbU/+aBiFDe42L0NQs3dd9web9aSH0/Qn9QR4hbRiQdp7kR74JUqAnG2nyGtJIo+F514j5F+XUUi5o6VO9LmD0cEfxUVl7gnGP3zBd+WSiIpea2a7DYIPreIS7z8avClytkk5q9XfP6wsG0uIvHpWXZnLbG5YjaJeaVqVjclbJuLRTzKgcb+UEalZ9PpJCevzSfELsrcYyZfnAOAZjmHL3rgkvfFck/Sk1Ex6w0JOLEkU9zpj/ZNMY39VGGnf08Duem0e2O5KHJpIDTXkglfSI44xXBndME364mXlZ6N5e4XPhBX9jd7hTt3gVp8xseq+oKbKtwbTrlEm21nPWZCqHdD6MQZlmvXh/Y0EutPuX5d5hRztlS7B2xCHT1HJB6KcMVdvt+Wu35V5hR/NlW4rhrCCZ/BYw8IJ86yLEEQDsgxaSPebSV/edKZKll/ytk6RIlCvL+/v62t7RLMqGm8sqNS//NSRwrlF6WOs7qAQCdCIXrcZDLBUP933cZm9Y4K/c9KHCmXLdXu8m6/3smwUZBYeghxnU4HJX6xWb1bObCueCalk6F0HW339k2FE3W8BUK8r68PSjznrHZdsf25onTIhg8cuxs8fVMJeDmFEJ+cnGxpaeGJXnFB88JJ408K7emUdcX2Kq1/mc0OIc6yrE6nU6vVfND/Uv3vtYW2ZwvtaZafFtllLbPTRCTuPRkIcQAAwzAej8e81BieMD9fbHnmb7Z0zbY6V9zocOJ8NmyUAzltxNMnrOmdtxvc7kA8RwISLz7qoNcWWdcUWNI+B1o9DPwlXYkXP3vdv6bA8uTx9M9TBZYqLfTpiwSLhyPc/hb3D4+bJZL15bahGbizdAkWt5KRDNXMD45NSySrj5uPdRBQb0oTLN5vo9ecMH8/f1o6+XGRJRCG+OzFncUZhqHiGh8NkU8cnZZa3m+f5bMXF1tnoThFUd3d3ZcvX1bHNQ6e6X38yJTU8nShmf916PPEaZpub29XLWNsK/n4sSNTEsw1M9+T0fPEnU5nfX39MsBVmwu1333fJMGUXCV5TizzxG0223K4VSpVRmHvd/KMEsyeZifPq/7niTudzrq6uuWg7yzp+HaeUYLZeX6GYnhdVzRPnKIojUazHPG9ZR9987BBgnmpxsbzMMs8cQBAMBjs7Oysra2Nz/298qZHDk9+47BBatmotNp9vA7hLhTnOf3fbbVBO726wPT1XIPU8juV1cXvUGKCxW3eyIZKy9dyJqWW1+rtQZrXO88Ei0c5sK/VuSpnQmrZ1Thzt9/7BbcnWBwAoB7xr8qdePg9aSW33b1A9m5fJl6coKKP5E0+lD0uqWj0gbsRL7g98eIAgPxOz8rscelkVe5EiN/OOADC/F83Px1dWzr1YNa4RPLWRb6TOLQ4y7JGo7GXxzh0Trcya+yBQ/q0z8rs8WEHxJVDELNKJBJpampSKBQyHuNtefZjmV0r3tWnd758SP9W0wzPIyqxCR1C/ObNm3K5nIf2/1fZoij5Subg/ZljaZxvHZnoMgQXvDYu/iWEuFKp5M8tk8n2y+Sb5Sfvzxz+YuZouub181b+5yKgexxWXCaT7ZPJn1Oc+9LBoS8cHE2/PFVk5PnO/vauh+hxrVYL1eOxlXfLslYrWj9/YCTN8uixiRtWvud94hQHAFRWVsaBLpPJnpFf+JxiJG3yQNZYfb+X1+Hw27H/twzR4wCAUCh069atDvih+WfXgcaRh3P19ylGUj2PF0w2DPqg9k9uZ4cTv/07YZdpluswBH5UarxXPpy6ebbMeM28rA9loROPbaFwhCvt9TyUO3afYvgzsqFUyb3yoRVZI++oZ/wwFwPdsSlRi8eehM0XOdzhev60aUX26KdlQ2LOZxXD3zsxsavJds2yrNae00+OOACA5YAryA47whU64jfV05/aNyi2fDVn7NXz1ivj/mmSCSXurzklTXxum88tEBR73Up1GAJlWk9JT9KivE7csIbIUDxX48/9LIssiEh8kWeZTndhcdRbE4tjcdQCqOvhHsfiqAVQ18M9jlr8PzmdaxLzSxrpAAAAAElFTkSuQmCC;fontSize=28;" parent="1" vertex="1">
          <mxGeometry x="628" y="-842" width="123" height="99" as="geometry" />
        </mxCell>
        <mxCell id="twCWT0G4kdYLpI0i5w0t-59" value="Azure Blob Storage" style="shape=image;verticalLabelPosition=bottom;labelBackgroundColor=default;verticalAlign=top;aspect=fixed;imageAspect=0;image=data:image/png,iVBORw0KGgoAAAANSUhEUgAAAGMAAABNCAIAAAA9/02EAAAFT0lEQVR4Ae2cX0xbVRzHYRL/xGThYcaK3VAy2IsKHE1kjz7ps2a+kPioPpm+dUPYQpZofNCxPS3GqECBLDOVzDgzkjn+bALTK+NPC2259/a2BUop659b+oe29xp6zAROl3sWfkfC5TTfh/aXy/31+zm/3z2n99xQoZv6JctyZ2dna2trRenV0tJis9mGhoZUVX1S3xVP+geH9nhOinboOSlOipYA7XG8pjgpWgK0x/GagiY1G87+upA0mX4XU2E1T4nKuKYiqcL7vYHnz7ufbXeZTM91uI5/6bk+k6CBZUCqqOlfDa9Vtbkqzs6ZVTVfeLJ5zRCWAalMXvvoWsisjB75EpYyeyWV3ix+2B98dEazvhmWUpwU1UWDk6LCVHF2jpPipKAnYl5TvKZ4Te3XKoR3H+8+3n28+2i7gJM6BKQyec0+Ej3dEzC3xleye/2FnCnq9mAWzW2YW0KqwElRjTEnRYUJzW1wUpwU9HWTbU01Tafqfou8fG0JSnU3I82z/1XBGV/mcngTSheXcu/Mpx83L7EldWIwXAm6Z1P5uevEYBib+cCXyRlvlxjOVzsOuBUv7A8pSx/8nk3NwBI285lCs7G0A4ThB0+muE+kHAxJ2Q4kqUD5laeFk9pexltr9EAWzaZIWRzw+4A1AyGcyOZn033ljKDZFNAV/XGkejmpbUW1VVNKBs2opCwsSPWHcCKbP0PxqMC2L0rxduuKXs4ImlGBasqfRtNJUpbeAPjtpJr+IE5kk9PwpNJF0gWOCCrAL2TNzkmVCtboWZeiZvdvoAcJUkxqqi+IE9nkDQY1VSBd4IhA8bwZJak4erBblh4Fvvv6AjiRTWJEarcLnI6T2nGd96QL5HiDkpJTaCpGilVNlXLZxBST7itnBE3FgGpKUtHfD0lZuv3w3edQcCKbqIKTWkgXSBc4wpZUrTN0pB3y+c+nOtyvOEP4q59xx1c3izuaZ28f8pr+y3qOPSlhHRFqnIg23Fqpv7kMpYahlcaJKE70lrDeOp/41JuE0sfe5HszMdIFjgjJTcOBoJj7RBX9FTW3OCnaAQYitZhEf66Rem101fKjfOyqCKXan4JNExGcqHkyUns9AHXmY1fFl7rl18dWSRc4Akfq/hoi9OL3Euzcd6Td9aoziBPVDQYr24D36F/4ViRd4AgUqQS6HyFVfcUHS6ry3NzxAQUnsvYpleeASR295CNd4AgQKV8CTUZIMSHVr+BEVoefCalyRtBkREiAzH2+OJpcJVV9xQtfU/1+nMjqkNmQKmMETa4KiRzEKsEXRxNhUqxIlXKxIeUlXeAIECkvJ7VVcBQrT28Mja+Qqr7MoPv6ZJyIVU2VM4LGV4BqyvMQ/bFMihWpUi5rr8TgOuUlXeAIJ7VjnXH00v9A6t4SIlTd5YGf+xwSTmTtEeFr6hsP6QJHhDjA04uafWEd3Q2RYkWqlIsVqXJG0N3QQSQl4iE5mKTmo2gsSKq6awG++3pFnMjavQjffV97SBc4AlRTW6QCpNiQWsSJmJEqYwSNBaBIraHRAClrt6/qgquqA0zPXHTXOyWcqGFQerrTDXjyqvOumh98pAscASSloNHdarztbxiUTjpFKJ26ITXd+TdL84hy6oYMdeaTTrH+Z+mN237SBY4I8T3/F4BMUbO7I2jEb24JMRBSLk6K4ndftqi1uSNoWDa3phN7XnkWNK1LXH/zjoTMq7dHZDVvvLdocC9B13WPmvtkavn0iGxKWO/eU77zxwxv4xnfddF1XdP1aK7gS+U8qgmlpDczRaon341riob3YTiGk6IdZU6Kk6IlQHvcP1A2Ul5hKlGFAAAAAElFTkSuQmCC;fontSize=28;" parent="1" vertex="1">
          <mxGeometry x="1083" y="-830" width="99" height="77" as="geometry" />
        </mxCell>
        <mxCell id="twCWT0G4kdYLpI0i5w0t-60" style="edgeStyle=orthogonalEdgeStyle;rounded=0;orthogonalLoop=1;jettySize=auto;html=1;exitX=1;exitY=0.5;exitDx=0;exitDy=0;entryX=0;entryY=0.5;entryDx=0;entryDy=0;" parent="1" source="twCWT0G4kdYLpI0i5w0t-61" target="twCWT0G4kdYLpI0i5w0t-63" edge="1">
          <mxGeometry relative="1" as="geometry" />
        </mxCell>
        <mxCell id="twCWT0G4kdYLpI0i5w0t-61" value="API Management" style="shape=image;verticalLabelPosition=bottom;labelBackgroundColor=default;verticalAlign=top;aspect=fixed;imageAspect=0;image=data:image/png,iVBORw0KGgoAAAANSUhEUgAAAFQAAABPCAIAAAD6GHXOAAAMQklEQVR4Ae2aiXdU1R3H/Ts81trWYxUCZCWIS6R6EFxxa1OkIFbxaK0WxMOpWmuLS7WAWwEhSlAWUcImGdAskoTsySRkMpPJ7Mns65vlzdvfu7cnpszcd2cms70k9mDO95zct9z7+33u777fvffNuwpewX9XXcHs8Cf4KzX6P0V+DiMPIAyLwMpKo7TUS4qodLSkZyQHB1gwRw7NXeTDImgMC2+6uGds7Bojs0JPl2spVHeN0yvH6d+ZmZft7MGAMEJLs90HcwHvE8C7bm6pToaKYqctV2ipWgujZ2axC2YRXoLQxkq7vXyNPj9stC+Wj1GvONieuDgb42AW4c+EhYdNTKV8bKNguZfv0NM7PRyndC6YFfiYCHZ6+JnZKrVUtY66WUfdMkYtH5sqZ30u/mhlAwJQsAeUh/fx4GU7m4lkmY563MK85uT2+/kGQmiJit2k2BETTxLC8ZDwnnsqHa4cx3Nhoh9rzcwQpVgWUBg+IoKnbExFhqH+ioPtj4t+ATASTBtAEUxNhBOc9Imfr0mZDsq1VIWWeszM+IW0tfOeHJSEj4pgq51NRClRWKajnrExujxTlocH211c2i540Mi4eQX4lYTf5+eXpcxnt+upgwE+KhbiqwBgc1R81MQk+jFR2GpniaLjrxj8OC2lkt81Tg9TYkHg/xvDAMKgANZZcP5qHXU2LOQ90OUVlIEnRPCgEfdv5TjdUljE5S5CCJ0c2GDBU8lDJiZSTL9CJba0AMLDQQGbz6u0VHNUlAoZ7CnocCo7amnpzpRZ4E0XV0zqVyDyfgFstOJhf9/Dp4Eo7tTxEL52uENPG4pY/xYLHxZBAyFUy/PcWrMy2Ti1r56fkM0mS3XU0VDhea9AeD0jHQsJrzq5DRYGG42VOuqzAK/UgMf4O0nxtjHZTmGbnaUKNZYHPICQlaCVlV62s1ioEzNQuZa6XU8rtQjByCGEXh6sl2f+VQbaWeiiPw/4TlJ8yc5WyUc4ij1dfsvNpTqt1BkJwh0eDjOqLnTBmxN8WARvOLkVY1TFaLw8mybYYhJw9l5qigiYD6eJAif87PAWRlpvpjF72GHlaPwWHbVijHphgsnufnF3GBgJs76r0LGWBX6IEjdkJr9jjHrayrzt4r4I8OcjQl9c9Cqx5J65c0gJYPCbJ9mZq2S6OhP8MCWuHqcwS9OHNWPUJz7OyQFSAjxIv0XLZLL485hLy7TxLZPMsaBgy/OJywjv58HT1jSj/U499b6HixW3riySH4NHDzda6HNhwcXlNPulhxch3O5kK0bJMo1Mz1rpflIsfFVRJPTl6phX2OHSUbLWSH0Z5LPO/+nhjwT4cjl2mYbcYKbc/Oxm8st0Wf5jtGkPyzXk8zaGnHGEpoH38uARA4W1+KiBche1icjCk9fl+8ap23Xx1PBgPpdpyEeN1FBczBQxHB5AeDzEV8sH/Cp93JJnLskLJt+bjYw0FBc7Y+IBP/eui33KQt+qjaeSl2nIcg25xkBpKDGtCRyekeBGC402VDlKfhVUfouW1puCT/IAtkaFWiO1TB62aZDV+jiZLvo4vJmRqjSxspGk1hopRV6YFQyWV8WWiPCEmUL9ny6/amdSZygcfo+Xw2oeDsziWj0vsFxuBhB6ePCijcYobh6NfUPg41cGL0F4zxiJVqvSxH48eS4X+MQ9WyboCmT8lo3EnrFQcXnyl8G7OKl0OIrqCSOVaO7/q2BjpbWGOMpSNRJtj8q2QDL4IVIsHY6g+tg96xuVWepTAKGK4FCW0uHIJlMcNSeDbw7zpUNhVA2BAvcMqI35KosAPKaPoThVwxEfsk6TwR/zs0vUBKoe+ThRBGPqVSwlXIhw/THexkioN4q0jzZyMogTnQkl87cMXhXklgwSqM4Gk7eijRZT3j5JlauJsh9UribK1cTDuugeF22i0y9FirEVEsDy4TBK9JGLTjQog9fEhSUDIVQ77QonvC99DNo+Vn7WEFMFuQAyMhOOFlaIieDB0Qhq5XVb8rGXwQd4aXF/ENVGfbQwq5lq/c1Kou2nlpcOhtaNRS5GlHn/S4qgVhdFrbxgjCV8k8FDCG9TBxf3BVB5OCVH4x4nhTaeqVw1EKxzUXzRXyJEBXD/CIFa+buVzAj/po1c3BtAtceh5Mj3ctJmQ7S6X2YCNYeW/2mN+YrbSgZ4aflAEG1znyuJg0feSgulvf5FPUnVagh/cR4kenq6EBOBgRLaCe6Ih95mitYMBlFzaLm017/NFE1dk2MNznB4LsAsRlgW9fjP+pMrFxyekcBGbXhRty+hsh7fYTel0C+OafzkATjlo9eNEmU9SaMJ64u6fQdc2Ko0TSNpT0kAbtLJWEp7fFY6ucjD4SUADzjjZd3ekk5PQncPBhyMkk9+qq8hXvrCFb97MJAwmihU9nhVSLhS62Y6006wpV0ykPWaEHozDg8hdLHivYP+kotuVKsH/cpmPtSJ6TKAsD/C3dXvQ+1Ol9eo/S42v94neGn9SBBr6qQ3OcnDTL/Pn/BQiztcJe0y/UkbdBcdfwCgwEpsTBQYKW0ubw0y1V1uzHT5RfdRVzz3R08EYJc1WnpR5v89A96AfOZKE3kIISeBP48GF7Y5UC1pdz55ya+OFL7aJ/2CtYvUqSKXThC6xojpQsyjo7GXwRKAx93x0nYnanphm+PxIR8t35Cmjp3pMzFB+sAaqeiQtVDW4ay346kzPfzU76GsuKbfs/B7O6byNscRZ6yAbwGdGqrrU//FT3wy7fMNnyAYUjakRQBf0AQwuyXf2/Vk9rV2iJOeGwmUpLi9useNhT3jsIc/fAnSFWJ+0+lc0DqJqaR1snbA2+AizXE+l2hIIrD2xtr3eNp2u9Oq95A/5pO9ZvnGE69os2N23zMRmaJNi8BAcp9PRu/udmG1FrRO3trhaA8mZ7hEIxkjDyGUAOwM0cvaJhc021K1uGXi3m7nk2rP+ybijJts9MTVYdZIcqkat1Dt+13NHzoyqeUjx4gqKCGj2kEL93e7MKM1HfZGTxzVWU+8fiKyw0g8qfas6nKWtExgVRY026ovTKq8yfV8gnymyCdu0kTZ1Z2Om5qsBeuLevu5HbasIpzJbCIC+JTaU7DFRMWyFtteSzjTPmGmyCf4zSS3ZcS7pMl807d5q1JlPvkv44m3DFmlVnkTFiGEHxhDBZhDq6zsmDzjnik95QQPIaRE6Ywrtrpj4sbzxrz027OWw6+N5qLmz2wofJ2FyMsQdvOmAddoJM1zjprIFX66DiOCeiuxqs1a9q3pRpUhF93/jbFu62AuatxrQD3bbyZyaR+7p+I70wMdEyp3Tjvx/OCnnfMygsod2zUeeLrPcWuz6ddn9TNo4Wn9f17q++C5rqy6eGoChX9L65uhWexSTYv5D92TO/T+Jg9JyFcyaJtYuRD46SYkAElB8jOCi+aHCfqcM6LKoJOf6d/eeGFmvbepPehJbjYlANd3TdxwWoeqvHE81URfIO6keD8rxHgx/ZoRI0YOC4dHGslS9DvjH27pen1tUya9sa75/KFxdKqzkeyqZuMNp0ZRbe63Z7GU5+W5gJckMNDqeO3332175Fxa7Xu9Fw07hPDUJLHo1Oj1DSOoVI5wnnRZbp8L+Kn1IgBhP73zxY4tDzSi2vqQ6vSnWuyjdBGAdW3m678eRrXkpCac88OcBfry5TmCnzZHxfjeJvuhfw/VvzNY/87gqTqddSwkyT+f4SVQp/f+6ku1TMfUf+2fyLRWucyS9/85hc/qHQDwa3NgwTH1L48MoCr9eqhJ6TGf0/I2q8dK3SAB8J2dKP1K/YtDfZgeb9bTQrrPC4qz/aOIvASgKULvHLIvPNJ33cEeTLc0DJkjsjcwxSEna88//CU/ub3fVtMwdF19988PdGFacKi32S578Zb0vejSPMAHaK5lMrj3kv2lNsNtx/qvq+u4NoNurO/cr3EK8oxYNHKygbmGt0Xo+04M/mzvhawqO9hZp3GwGb8jSzIUXJpr+Ld7zNfsbs2qFUd71d6omPYVZ8GsKRXnGn5zs/aaj5oy6dqPm6oOtP+lSeuNJ19spPis2Im5hleZvFfvOp9W1Z+2be8YH/JEFIPL1tBcw0sAHNXYF+5uunpH47TuOdz5j7YxjTfCClK+27JsdFmuzzX8tDskJxhD5Oyl8SzQly/PD/xl6/P8/yf4eQ7AvJm/oiP/X9JpRGP34najAAAAAElFTkSuQmCC;fontSize=28;" parent="1" vertex="1">
          <mxGeometry x="606" y="-435.5" width="95.17" height="89.5" as="geometry" />
        </mxCell>
        <mxCell id="twCWT0G4kdYLpI0i5w0t-62" style="edgeStyle=orthogonalEdgeStyle;rounded=0;orthogonalLoop=1;jettySize=auto;html=1;exitX=1;exitY=0.5;exitDx=0;exitDy=0;entryX=0;entryY=0.5;entryDx=0;entryDy=0;" parent="1" source="twCWT0G4kdYLpI0i5w0t-63" target="twCWT0G4kdYLpI0i5w0t-64" edge="1">
          <mxGeometry relative="1" as="geometry" />
        </mxCell>
        <mxCell id="twCWT0G4kdYLpI0i5w0t-63" value="Azure Function" style="shape=image;verticalLabelPosition=bottom;labelBackgroundColor=default;verticalAlign=top;aspect=fixed;imageAspect=0;image=data:image/png,iVBORw0KGgoAAAANSUhEUgAAAFwAAABUCAIAAACA3sdiAAAMV0lEQVR4Ae2bi3NTVR7H/Q9WoaFtwBZEC44O4+JjVMTHqivrsG5FRPAxuoMu62scHXRR111nXGDXXWfb8toVlEehUKBAC4VSCsW+ACkU2tJCKSRp0qRNm0fzaprk/r47IdAm956be28ebWaHzG+m556bc36/3+f87jm/c256C25+BARuEdTcrMBNKIwgSD0onB0Du2EpUCz2IgT6GS4qr0o1KATrD2jPwIVfKJb2dDjKlBNgtEgxKDSEztlovTUW6XwCvm6Gi8qrUgyKoxIt49Fyq2K5oIbjkHL32S1SCQrnwsWZaL41FjH/GxRgu6i8NpWg2Epx7jblMg5X5oPzKPddtEXKQAnYcGUBmm5TLK13w1kr6l9MN1IGiuskzt+FM7cpFtN3IH9Mvos2ShkouqVoHKdQxqNjvqhncdxIDShDBpydjJ/HKZOWh+Fpj8N30aapAeXqRzg1TpmczkDPeoAT9SyOGykAxdOGnyfi5HhlcnEhuME4HI/WdKyhUAD6FTihwonxCuTcI/B2RXMrvntjDcWrw7nHUT9egZyYBNvR+LyWaD3WUMy7UD8BdWlypV6FzqUIuCTciu92sqDoBvw7253OoagTIflxdjZq0xTIzzPgNQhdbjEPHex0e/0kvBVDTVKgdDsDc4qNaXmaRaU9jihcenejJk2B1KnhOM9zkgh1+sGsNdqMAu3aMwNcIrAkHkq3079gb09aniYtT6NepV123DIUYFnqt+Hss/gpTa7UqKFZySMCoMU89OS27pC67DXajc0Of9xgEgylzx1YVHqdSMjQSau1X9VYhM7AXIrayTiukitnn4fXyOvH7uVmbTGorg1ASF3WGm1hq4NYo8BrG+UykVA8fvpTdX96fjBGwiWjQDPIe9o5D9reQ7VKrtRkw1otdGPPRVe4olD5nvVdx3VxbZoTBmUoQF/VWNSrtEIrPz0mODp1tqA2B8dUsqQ6HV1rhUQAdDv9j24xCDXe/6O+wRB7apcYKBxheb1VGCNpeZrF5WaXTxDNlz7DUZVcaX4LAdGRb+rxztjQJeQyY4P+fO8QE6VkZWKgFLY6pq7TCS17vtjYafXxjXB14KgaVSpZUnsfbCf4PYRdE7DnkivnPyztO42dNoH2sLZixQRA2dvhmv49Y6ye3Nbd3i8YK+LQ9imOTJAr2nWSxyUBDrvaXVPW8rmo8jUvlph6XYqPKeOFUqX1ZBYw5pEHNxm6BlhnP4421D6Aygmy5NxbgODRExnfwlYn05Lni43RciVWb3FBOW3yPsKa5+7d0HVE42GtixxpVlNlJh2eIC11s+DRsGxm17l99E29VfgIZxRoPjna7/RFza0ju4wdylW7f/bW61lTuCmT1+oqr3rYCRQ3SA3PUMUEaTmSDcM2kAJPADiHuC+PW8KNCZUnrtJ+dqxfflIXIxSDw//gJsZamL1GV3bZHcl95IoMO+hQuixpfD22VxYc4d2KvgmCXCktT/O3eqtMLrFA6XUHXi/rFSrOLNAWNNr5edowE78DNY/TwXRpqX0Kg/zkdbgbyYLe4V+4LyKrDsXLHet0688NSDYHlP/qwM/RG/t7MwoictaQ1m9P2jy8zDXcBN1mKk+XlsppMFeFt4uhbHD6n97OeLSnrosWyMOKlEWK20fvV/YJH9rMVdpl1awNzrAev4NOvkIH0qUkg1qWgfMOt4u50OsOzN7aHb4tCpmtytNUaT3MLeqwLgVQfBytaLDdvpqxAC85ZO7zRE0Heo9SxTQqS48uqH4M7sScMxJwwjB4/0a9cAgf2mSIvglQAOX7poGJrK3NczuMNq/EMkFNH1NZhoSUT4G9dXi44i8Q4bTRm72GP4qqPM3MjXqTeFInC8pggFa3OIXIJ+Rr5u4y2aWIwK2jA1OpNCO5Up4DY7kQ5aEr7rtZCffMTYbmfuGuLNiBLCg7Otx3sfqdXdjd2idI5AV20ek/0L6MpEv5dBgZv8bwBWhTs0MY46p8zXMlPXon46mXhnLJ7s9cw99WpOVppqzVXRZu9oRE7BeoNJv2ZiRbcGG5WGpDQP5puzDS0/I0j+7qEZgsFSnd7sDUHxhz1cyN+jo5Bxacj5r/Qnszk0ukNIualkquWV/XWpmrxEc1Vh4XiUjZ1ulRCbLD7LW6wnZX9FXtuhq3jo4+RXsykih71dT4IXx2nmPCS7uX+/3hfmG8zCo0eCLnFgkoR4xD6ZGbYFWB9pF6Z54NHjnbV82WJOIIsa6eA4+sn7pd9uFtI92x1cTj8kwxP3uWgOInvH3UorrBJX2N7sFqe64R84zYMCDFJTBIR56kkowkStWvMHBRGBTCmqs+fNKHXCPmarmc4p60G+E/dYO+VMc/uJSAAmDAR+9UWdLyNap8zX2HrS/oKdcY7H2eEesH4I0SL1c2U4madmcmSyoeha1Z6L+wpsuPD8xBm0Myp8M3eXNwE5D1fdc+DSPipaEA6HIFflvaO73E/ILhOpFQ7wtMKHWJ/xqidSXtv0eB7JmsAF/Z3dCXyTmCsgTwtWWESMjyX7cPTfnR8F2Tg7lXkwUFwAW7/wsTNwx7uPBaDw67Rbj4neg7KVPIVEVVc2hXpizZdyeubBFbgMMjZYDDt1a8eCNGhs2eb8IWo09ssZALBYCNwxf9fOS5Riww4ZjoYXu4hVHL1vNU/oAsIiVZ6Fgvh4iH8HcWkXlG7HGCkbTdMFABFACdPnwY9nAOg1/ci8Y4d7bNK2hnpgxR09nP4XPesF/0r5fw4wBeEsRIrhHr7HBHmQplpvnhmtuGsITF5Y+9uCSd8Yf3FFb2Oaj0XhlEMlH3JgbNYS3ZRQ4ocuAVEyOu/2ULhnz0j7JICfV1xYc3exj6XjVBzzrAj25B8G7zSirOlBRUzZXz1ADY7WTMI7lGrLCKTH+RJsYChQN+8uANFpfP+2FQysWppT05kkTo8NOwyTpYqPLgdRHbuuXZFgsUIDhLHfcEp9jhaSVUeNGIP/fDIRWfYQND1LaKiifRjsxoUjIN5hNgvTQJ6ypYbBzEWywiH5ihk0dE7tEBT/HwZbkLLwu45BqxrB9OmVw8JqqcS9vV0WTXnehrHFYqViCg2csfpNBQLemFOcpiI+gxxkgJ9TNI2OpgPL0vGbHaLrUJuNYF6Q9ScXY0Irtz6PJmOS+ALg2JroxNXtnvGa9ZFRcUAIMUXOF4D1GuMRhB66Q3rqDKF6hIHUXQ/C0C/L2JYGiDC8oHZsbwvGLCGa+syTW8z3ihhPrKs7Ezgs0ORG7Kw1WDug5GwUE7snDy44gGIhemAN5nZQmv9aA2pqwyMVD6A8HVThgvr5pwwCUSun4XqubTNjVbiiZR7RJ4bSIcRqqtHJaz0tYFJux3RRuSkS4EpcRACW6mOfZwLTShgTlc+kO0M4dNZJuayp+CW9YpyXJLcL8uHI8iB5ibPQEBRkXCoACwc1jax3iw55uC+4OIT8BLpz4VJbL/Mbhkvf0pdDBwLDAFz3ri+SQSCgEdPrzHerxreMFi76CS+2irmiFls6j3lEyXvmE9s6tsshMCETWJhBJS0eXnJy/fWPjzPzX+lYFjq5qKsqDbL+eUJKRL58PCyFTtk74Y55FwPomHAqDJi3d6g4H9khErrYLTOaeOiqcxoBRPw8UN4cbJKZ/xYvE1XfOM+KpfoEtOF4LvJAVKAKjxBNPtry0Qbjfo1DIGke13oHWVnCSN50Jow7HIhM/70SU7ked1wrtMChSejohLh4ZKH2NAqXs3yu9CI3pgXbhl7ipYbYV1owuFOGr7LxVN5kM59gYG+4TGjVXN6EIJeKnid1SojpDKl+GRPjcaTUCjC8VQGYGjUE2ls2GR9Zri/xRKwEtlT1DhxBHZ/UsYfxpNb2XqGsVI0e6jwkkjRHZMR0+D/JREpj8J+dpoQRlyUNWiESLb70T7BpkHrgnxU1EnowWlp4F2zqAtE6/LuX/CL/pzW0UOJOPLowSFGpaOEDn1ZQxJWjKcF+tzVKB4emj79GtQJqF6MQYF/xMlZt0Y1Y8GFKr/6HqY7H8WDu0YeapAbdKhkLWNtk0JQil5CD6HAtPG7qtJhsL5cfYftOV2Knn42gI8do4q0ZxkKC4DHfgNbZ5I2gMpuwALcSUZivUClT5NV/cJFadyTZKh+FxwdqVm2hplVJIMJYrmFL51EwpjcG5CuQmFQYBRNRqR0tfXV1FRYbFE/dcxhm2JrPL7/SXXPj4f770cQ8v/ANc984C03xcuAAAAAElFTkSuQmCC;fontSize=28;" parent="1" vertex="1">
          <mxGeometry x="878" y="-432.75" width="92" height="84" as="geometry" />
        </mxCell>
        <mxCell id="twCWT0G4kdYLpI0i5w0t-64" value="Azure Cosmos DB" style="shape=image;verticalLabelPosition=bottom;labelBackgroundColor=default;verticalAlign=top;aspect=fixed;imageAspect=0;image=data:image/png,iVBORw0KGgoAAAANSUhEUgAAAFQAAABXCAIAAAAVnfU4AAAS4UlEQVR4Ae2ch5cUVb7H929YZQ0rKo+3T4IgWZIEgUeUaUDQkaAcV10Tirr7XF0XZgg6OcPABGAAxUUWRETEh2FNAwoMCMIkpmNVV4fqrurcXV2/t/fe6uqq7urInncWsE8fqa5J9bnfX75V/gpu4NevbmB2+AX+RlX/F+V/Uf4GXIFfzP4GFB0j56O8TQB9BKLX/pLlA1/vgr86gLv26fOBf80BL9vBJlzz0ucMHxDhMRoet4IhcuPB/xAAHQWLKPjMd4PBR0QoZRG8joLXHdd8zMvN7M8E4QmrBK+j4GPvtc2fA7w/CmtscXIdBauscDJwDRt/VvAREbrC8HtGRU6MfzUDZ4MQFK/JJcgAHxKhMwytnDY54S+kodYFpwLg//9dAj4KtAAdQdX7pyDYBYhkdyXa8H4R9nlgEwvPMCixLcYRjqBq/ncRBY/g/PcXB2znsv3beVhLXxiOeaHODautKN2utMKjtOpdSKOTz9nQ9/wcgvS1iDY8I6Aa7mkGlltRVtMETj5ZSMOTDLxgA4tWCRAVweWLXqQiRy74q7/gXzvoXtbqWLjNtqDRNr+RmbuVmdfIPPO+4/XDrv1nveepkIUTfBHRKiCGD72wwQkrFLE2+a8nn1lMwSt2+MqfshjVhhcBGAF6w3A6CIe8sNaegX81A7t4ZPmdYaC0yH+mw3tO+dcd4Z5oY5c0ORY3ORZttxdstyvhZ2+x/vcW66wG64x6em6j9cn37K8fZdddCD5Ficlg2Z9ZQsHbLJi1rkobPsEgfSIy5lQmsN4JfIo6XwQ4Zw6/eoBb3soWtjofaXEubXbG4bdJ8POw8kr4B+vpaXX0lDrqgVqqoM227kp4KZ1BgPTL8bhVwx6zggdA+fwjb6LhPUxDo1s71EdF6HMIO77zPbnbtXwHW9jKPtLiXIbgHQRet91esM3+0Dbb/EZbMvx0BE9NqUXwk2stE2sshQccj3UEl1qkJVhhRf71ih3WOaHICRUuqIy933CgiJC8Fq8l9SPZwhNb+MADSgU2s9qaC1E41BF47QC3cqdrxQ72MSQ7hm+W4Bc12XXY5iX4rcjnifIzG6wP1tMKeMvkGsvEavP4avOUrdS8A84qJvqVHy6FkCUzAnii4BNBGd1dUegOQxuHQrVyCZZQ8J5HFQJzg3cK8KeY/xfS6A8nv7iA+PpBftVO16qdrpU7kOwYHtn8smbnw83Y4VXwzLytzBwMP2uLNRl+Uo1lAoYfV2UeW2VasoP+2RoSlbjJF4HP9IUTq7IXbKprzg0eAA57peXczWv8TSMrbPrEI5ErZH80ZvMSfFK0m7OVIdFuZgNNlJ+KzX5yrUUBbxpbaRpTaVrQTH1wzhPMIpsbw/A/DpX+pxQlac7wTgH9rmU0XA4lwrv80b8c5h/fhTRfhcmJ7I/iUEdkxw6PbL5gO3L4BTGHl+FnYPhpddRUHO2S4UdXmkZWGMdXm5pPcpFoZgPoDatctZmLX3bO8ADwB5zMrYoCQgTQO4Rn33MTbGLwK3awJNQ92kLivONhHO0WbcfwONoheMnhkfIzG6wzGiSHx/DY4bHZ319tnt5gXtxqeeuIdcd39rePM2sPWs9ZFDrGoVRHnigavcjO/7oj/tV84Iuc8Ec7OBXwrC+6+Zhk7Yg8JnthK5sku4PIHsvwtrmywzdYZzbQM3C0QzaPlEc2P7HGMr7avPpd+uhPrI3l+NiL43iDjXN7g3EarSO/iAo2GX6NLf5N+cB/G4B3PRBSWNy+H/1PxKxdJidBPu7tpLZpQgZfEMvwpLabvQWFelTeKGx+Ck5yBP7FD6xGxh3njvHzPM+6eYcnyQPjgKjjWKeAf/Yq4RW/GeWYk32h1W2Swa/cgXJbLMKzhHxZLMMtborLLmd4Eue1bJ6aXGOZXGt59SBDOTTBpTWwuz1hQSvx4Av9Z//zjKIf3eiMX34+ysd/GqDXLqz9gJNNXUUei3NyYZPg7UT2OVu04/wDtdSkGsvsRuqHXpdCaY1DjuMdnF95Vcrj7rCqMVMmqauCDwvQ8q1vJc7nBJtEOOTqOMjJJd0SXMwrg/z8xri3yyW9MskRh3/171YNXK1TwbAiCCnoa91xh9dR0BOOf+2q4GlOeHk/J2MTJy9sdUrk2NpVET5W1SVnODm9x6taHOqO/cRqkWqco1ivkJT5GAEeVtR5z9nAp/CPq4L/22k/cW8ptsnYuJgj1o40x/Uc6eHk3C5XdbK342YGpfd4qKs2G5h03q5cA6ebZ70KWbHAe3iV7A1u1awhf3hPUFy101WI63ZZbVLDLm2WUrps7XIlT7r3WG5HPSzJ7XI9P6OBWrOfOXLO2d7jau/J4O1KeJ7nA0FV2qMFeFExdCyk4Vt1WZA//P4z/kex1MTIY00bal2IqZOmXc7qRPP5jWhogdsYKb3JuX1aHbVyt/XgWacjN+T4CjAsH40V/SLAezwsUUxi1trApbB5gHzvyQlGxD9/yC3DFfuyZtSxEGYZOwW51L1KbQyqaqTcPr2efukA02nRTuZxvrRHHMcLghT2TBE0z5JrG53WLkueyuudwnP7XEsxswY2dvJUmssN3Cxc0hGDL2iiv+7MV3HFivQwHgAIiKqSVkeh9ib5lSf8N72h5TvRTIa8F8eqNymTx5q2h7bZEqxdLmmU5NPqqKoTDtatgMj30GjjwiK8r45zj1vhnCoaSOuQD3xUhN2nfAQYmXeTHb1xu0LUJtUrwSZZjUQ4Nbk8tKCn1lF91myjevpl4Xj+GBtZrkhviylo4SCsKMZlE8gHPhQRN3zCLdqOgFXMOI0v3GZbGBccOXkstkuzGqy5RD69HpGv3pttJZOenOf50w7vCotq4Pm8DWit6WWeAa/HL3xyiT/S4ZLfB8+4Gr5kn39fatFxPpMG0nLTRloXpbUT8il11J8OMRmpsvmGdptnlUlQBrnHrXAxddeTs/Ju1CeINOdJuBqO490c3/otq2vCauN8NmcrM2eLVR7LzlREOEJOSpo1H/wLlL/i5F8whJXky2j4Rp3YZYMnB7nBs1EodsITVjGBXP7o5vgTF11LW2wIG43lVKZOOtbpio6dFHO6Zkr+Dfkd6FnPOmNISb6Igj28qu9OIM/Z7Fs4NBJay0TTX+KHHa55eCYXG8uhZD6jXhrOkREVmVWQKdXkWst5Q/6x/grredMS1sWm2mQJyl3gVZc0+cOLgPZ9yO99KRO808W/edg+qwHNJ1ABF5tJkoE0MXUykCezignV5jc+Yri84j3l5oupRM3f0MrqecJHAdoD8THg86nNXraID8+ycxsTBZc0J1sRNdKIioylFzRR33e7csXvtPN/NYUSNH+WFq8kNjjJ4OhMVj5viqDtEdmjVtEpfV6GP9njWtIiZ3JKiU0adTKQlgfy91eblrdRRlsO+BcZ/hV9Ivn8nkjxqWzvkssMLwDUuOLkOgqezkL5S2b3Y7sY2c4TTF0exY+vNo+rMo+rMo2tMo2uNM1vMn92kbU6My9Bp4N/riuo0twCsy+G7q4xbGt3aQuddDYz/DGfagy0jIZ2f4aAx/O81ckdOM1u+4fj5QPMg/VoDju5VppDT4ztwNwvk1ci8tGVplEVxgm1pjUH6MavbXtPOfaecuw5ad+N320n7eS966St9TK3olvl5zoKZv0UHLjFeGtx994zitF8ErDyRAZ4UyRx028XD1FRzLL54ji0Cl9cYmdvRQO5ibE59PhqMyZHgo+NYY+qMI6oMN5XbhxebhhRYRhVaRxZgQ6GVxiGl+uHlemHlumHlPaNf59Z2KuqZHQUzO0M31XVd1tx9y3F3e2GlPM8JXkGn4+IqCpW7ky/bEcbvVFRdHJe2b2zObhgdK/eSxMPv7/afH/M1MdokQ8rMwwrMwwt1Q8p1Q8u1Q8q6bunpO+/3um7p0I//kPHQpOqetVZYNa5wIAa/W0bEPmgst5AFttYZBXSKa+PoDst5Dino+ATH9qrFgF8/kA2zMrv+fIyO6mWYKP9xjF4142Y+sgK44hySfNhZYZ7tciH1Bmnfe0pUCdzHQVTv/cOrDPctqH71uLu3xR3vXjImiBvmo/p4NvUjeEfHfGd4GAwlDkoKdF5nuP59UcZFNsU2KMqjHFyLLgm+YhWakGSqessMOG467cbe27H5LcUd/cr6jp62ZuGNuFLKeH5qOpWhFVWVW8UEQSPJ7G8V8NqfDLZuMm1SHNZ8JHYye8rNwwvR6aeTD603vTAZ+5EU6dgQZ8w+qCj/9u9MvlviroGvtPj8GkPsBOwyceU8B/7VAZf6YrLTn7Sxefm9mQxVuymiNoxwePY95YZhhA/L9HfU9I3qFQ/Zp9tzoVQsqnPuRQa0mq5Y5NEjgy+qKtfUdeqfVQ2+9byQmjDiwB/VuxvLUuaewKALxjO1fL/ubW25gCNsLGTD1cITsgHl+oHl+gHleoHVximfM4XmNWxjQIc3oIDaw3Y2ntuK8aujsnv3Nxz8ILWPQMya9KBNjwdUe1vvWRDN4Akv2yunMV/+n1Kjm3DsZ0rTX1wiX5ojXHCIee8S6rmlATded2R8Z+wA8r7JHIpyCFX71fU9eA2g92rdZXJ1x07ow1/NqgafVYn2Tz58VA4kmXClwPArK0m4t6yhw/F+QwJXqIfs5dBdp6QzPD4ecaP/sFN5v6bekiEk8M7Ib9pfee2dpfWqCoGqvWvNvznfnTvhZzkjqe4tV4URY/XJ4NlPPjfn53KwCZl8hL94DLD8Ebz9O+8qnI1NnJf0CuMO+zsv6nnjo2I/Lcbegj5LTFXv2l919i6vrCQK3uKxuawV1Xb/Jh6HhIMRXg+q7DfTbkX7zDLRk4KmMFl+lE76amfc/O7I/JaywcFZnHa994hTZY7N0vkt2uR/66057OuHDKcbATayh/zqfY6zmjNfeVfQbGZxWfd/MZj1nvL9HLdNrhEP6KFmnUmsFAflWmVB3Mvh4e30XeX9vXfiMk3oHyerHm/os63jtvzkD1leZtg9oczLavD7U0T+a9Y3fVfMeOqcSYr0w+rNY3eZZ3R7tMI5jiez+uOTD7BDazS37mpV0GeaO03r++6aX3ntEY9zaeYzsr6pDjQVv58CD1IIOtQ5MxwO3lEEHhPYuRnnFyHwdV20r58j2VomX5opWFUm3XqCW52R0AzpOkoKDCLD3zBDdluJtj9Y06ONI9lNZLSb8Lkg8t7z2ZxT1IK9hQ+zwjolisZ/hEavszUKQUi4iNt9KhKw8gK6Y0asnLUig2rMU064prfFdGWmgQ2C8zqCAzaYrprc6+S/HZs7bfGyGOxHWk+sKTny94UoTgVrvq8tvIA6AEDGZ48UfKpD93xmaZlcvqEle/Sw8r1w2qMI5qpsXuZyUddM3/wp2OmYH6PMO077/Bd9N3vXLlrU2//TT1KUyfVK25apHxONB9S0bv/PJ90M4IaLtOnlPCMenNbR8ESGm13V7jQJLMnrLqJm4qgB0zPB6GFiuh+9M/uCGbQGav9kD464VPX0CbLgJIrd26SBL8DhzciODF1OaX1K0KC/3p955javnaDP7YZrY14LpjyNnv5B1LCA6A7559VjO6UhnA1xwUm8aG+6Pij7MDyvrswM7JznMZJJidRXQ7sxNRvxuQ3FXWOq+vroNKmH9x0L6LgeCZXTQcvApwJwlMK578a5oVGcVZHYNIJ931t9H+UIWxCHrdzXMAo85msOSEfVtn75jGb2Z05ttsFVKfsQ7vV6V7p4AEvoSkC77DI5vMmn9cVmXjcdW+L5XdV+gFvI8eWjVxybwlbSma34mkUieo3F3XdvL7r1+s7C/dazpgDqW+3U0F+gx/7LGXRRn2aVwZ48pMRgGM+9MhNIa2q/DSXYyl+xOdpBjay8LEPTruEtR/ZRlfrB2phIztH8RwXMDikE7UJ+S3FXf9Z0vvgdsPfzufQrvlFpJaOQk+EdaUd4GcFT5bAFYXvA7CXR9t1bzlU72In1LrRA017ePjUhzZG+aiq/z9HBbe3u9ccYqY3Gge83UtKdIyNijY5sJFpTL+irts3dC9uM5d/5fymz+8PZ9p2Uov7uR+JRITZzKZ75jMHePInooCebPBGVW+fiLYEQ+onHtSXhNbCHxYdXuGMOVD1D+fyd6nx9Xol9rDKK3NaTK99zOw5w5ncES4QzSOTXQrBakWQWoy3KzXvTEhZ3iZc97//RwHQ8/wHvapbDon4iyj0gOCVsEaRmrPy/24LwQhovl7tglft8d3E5GD0BxtsZmGLW1WqXvPwXWHVoDUZO+HMVndcvmsenqD4RfjWD+udqp012eyfYZBHJD9XeJ3AkyVgo7Bf/fCbjkK5qTusHfOvK3iyBHv5eDHyFJOuE7sO4W0C+l9a6Ch4zArfpR7AXT+pLh7EcEn+MX74b13qh3zJ91+HygOg2KajoC1TTXx9wgdFVO0czTTmuT7hAeCQR+OZcaV3XJ8+n0CY5uP/Ac4ZdRt03MGaAAAAAElFTkSuQmCC;fontSize=28;" parent="1" vertex="1">
          <mxGeometry x="1148" y="-433" width="84" height="87" as="geometry" />
        </mxCell>
        <mxCell id="twCWT0G4kdYLpI0i5w0t-65" value="Azure Monitor" style="shape=image;verticalLabelPosition=bottom;labelBackgroundColor=default;verticalAlign=top;aspect=fixed;imageAspect=0;image=data:image/png,iVBORw0KGgoAAAANSUhEUgAAAFAAAABPCAIAAADz89W0AAAUMklEQVR4AeWbiVcTSbfA/Zuc+ead75s36riNjDruCghhc9dBBVFcGHXUcRl3AdkJICOrqCgqsoOAsjmogEvYs3XS3emkO0kn3V3vdTpUd4eEhIjOO+d56shNL1X163vr1u2q2/PA/7N/874Or9XBWeysxc6iFKslGJTkZYudpWju63QAtvKlgJ0sGEadzZ9spb3k1Ubit8f4sWrseDWWWIXtKUMTq7ATj/CUR/ipGlN6q6W0h3o5ap/EGfbL488xsIPh+ibpa03E5nz90jTt0lTtsjTt8jTdT+m6Fem6kNv6kNv6n2/rV97Wr8zQr8pAVmUgqzOQ1ZnImkxkTZZhWzGW204O6RxfDnxugFGKfTVmT20lou4gP97SLE7VLkmV0Ya4aL2gZiC/ZPJlTaZBKGuzDGuzDLtLMGUn2TvhwK0stMY5ET4X2GJnK16TO0oNKzN1Imqadlmabnm6qNgpVF6lUKuQU4Bcm2VYxxfjuizj+my+KArR5AemR29ttrlTefDANif3YtgWUaRfcFOz8JYG0i4TaNNcNpzOG/CqDP2aLGRDDrIhx7Ap1xCab9icZ9ica9ica9yQbVifzatUQF0/hboh27gh27gxG92Yw5d9ZabOEZp2zoGlBwncOWo/Uo0uuKleeFOz6JZm8ZQZ84p1jdhVGfrYYmPKY/xGk7m4m3w6YOsep3sn6Lcah5Zg3mkcvRN03wT9dNBW2kOlNVvOPiX2lOIbc3hOF6pRQN2UgwolNA+98Mz896TD+Xk2Pmtg3MqefYavytIKiuVpxRHL00YUGu50kf1qWkswZjvnDMDzOllgsXM6MzOoc97tpnbexSHn5hxUWuKKsfQW8nMG9iyAWQ6809I7Sg0/3FAvvKn2MOP1OciRB1jjB5v9sw2PZriOEfrUIyK2CHPT5qKbc9EtU+W3R4TaFOQcFiiw3cmV9Fo25et+mDLjH29pBFe8MU9/o4noGrMzn2dsHk6YdnKvJx1ZbeTOuzhEFYTQXHTXXbx2IJiHGxAw7eRutRI/pmo8aJelaQ/fx8Ywp4OZA3fiASz8dDJgxMicfmzekouGyouiALv/2ur1rhkO+ge22Nn0NmLRLYFWvcjlkJemaSMLkfv9lC8DZjmAOZj3FroeIQvH8OPv9DE96jQVBrtSMIaHdU2eHEAyR7BGA/nObMd8PzaG5WoH7fvLTWES5rA8LCwPK+22mu2zeNx+gHEr+8dzfMFNNa/bW7xDFiz54D10UOeAvZcKFMN2oNabKnRnn2bFi7H5DSpYrnw0witvD6Pw+PwG1eLW0Z19misfja1GyuptbHAc+IQ4U6oJgRP+H56P5bZTgcfkMwE7WS69jZhOm3gftfqIBPpMtnWd4982qr6RcEKwGYDhNd82qja+nHiFebdVlgPXGywCbXgeJpSteVh5j/fr4fOFgk9ghuVKesnFaeK4XXxLszpLl91unj7TkAzbZKAS3+j+1SjqEzJAIRBgePH+fm2jgaSmaZuiuZIua1QBDoHD87BIJV7dbwskMvEJXDNAuWmnLPmndN2TAatt2qyjtjkS3+gWtozAvvoSZgU8v0G1sGUk/m/tCOU5dmgn90JFb7+Db83Dtua7S9wdvPUTzfkbzt6BPyCOzUrZDLQ8Xfts0NNsWA68xKwh8oHqi3Z+g2q2wEJVazvH+0y26fFL0wd7TCEOgSPyscRKArH4mRu9ADtZ7qg7bHT75J9u69JazdOdaOkksbRtdAZCj1PBAc9vUC1qGSkax51y9VkdnLKDisjHpOVSrcWXfxGGsRfgOz2WRbfcQbLgkxPvo16juQaE+qHZvyVD7KCBv2scrtFapiuZornzTy1S4EglVvXaBl3UdMET+CPi+O8b6gU33bpdkqqNumPwSgsAYDlQqSYCGb0Cc3DAC1tGqrXm6V0XjlgdXMpDc6REzwfKTWMo4+t6GTBJs6eeYPB1b0mqdmsB8k4r8xlqJ/gkOUCzXIWaCFDPQQD/p2m4fJKgJcodoxyk3HW/0zj3lZqgnhVKTNkx3bu7n4AMuGvcvuK2duFNd3TxU7q2qIuURo0UC67gIEIHPtDiE2Q58BwhA2GeLfB3jcO1Oot06PabbD+3j93XmKXOmOVAWY8VAkfkY3FFuMGH95IBpzxG3e+3rje+uL8MHk6vjgKbtWCtBsQjMmaG48omiQX+ZqZZAf/YOlKlFi2Z5UAnahV8ZEj72IRVYmYAWB3ckSpCyny93sMOpmn4k8GxIkMrvt+maVs+2UU9Ap4wVs/TCsWD2cFyDzRmX8wLWkZietT3NSJAB2o9NYjE9ar/3TQMvRoUvmscrlQTdokld2HWdZ3j8ILobrWRlg3U1xOOmEIcMiuU2FuNU9p/QRY1vP+ekTfmqbf5A5Wo1GwYDuxHRFqBOUInG88AgGd68vtmGcC6zvGyScLJcQwHpBVyALAutzdKOU4NIpBkfoPqu8bhBoSUXtxvsv1n2nM5N2SQPBBA0dzFWpnHvtFASi+QAY9izpAMLVyXWp2pb1XJ1NtmdRsz1LAgHETAe8l4dnBc6STxffPwvxpVYa8miidMlsCWZPoJW9Ib3ffNwz+2jlSqCUjLAdCBUj+3y15ChKezqn1s0CzrZPNHOlai5CNVhMYkswIAgFvDJb3kkjT3Ys2yNN3+StRAiiELyYILmKd6IfmeaczP9JbsEcxjmE23Lo8jhJNtMVJPdBapJffhtl86REuWGsK3japbKlRaCW5lEyrEkRxdgHUMS7ThupQHttjZY9WYsDQlrMJlvDBLo5ohGmxx+SoI6SHE6sFHmRORdiNImQOgD7f91zRLljIvaBnR2mQDtbCTiszHYElrIj2a54HVJiaiCFmcql3q2iUIua3rV8u6/yfuU72QPMEAPshu8mho1j87UGrNNN3+UPM2vKhhcfVriH38nV5a9STOxBbiEDi+1OQxjHngfjW9zL0twi+dK4oMTsnkS3LeRy9EhcIuPZDcJ+1GMLKiWw2p5jeoFtS8uXQ2oytsx6fVoU93JH3/dEA4u7BlBLGLSuY4cO4JH3gJRZGPDRtlw5gHLuqyLJnaBFqRrr/dKk4eAIBmq3/1rtWA9RrwyNN8guGE9xRPmL5r5Dm3FDcpk85rl68xLQqB5fbxqwLwd43DdXpZww/+tkHgyHzPtQEeOPE+utS1XfCTawfojUY0TQ6As2hAwEeNQOLmYLeDF9TD41nXC59tS1SvWA85oXDhXJYA/E2D6sJ7gzQaG9A6YwrFYZxcRUg7wQOvydYvm9rg25CLSM1Sx4AdkmADWq+HEKYFLVbZNCttY7Yy81FlPX+FWBuKL10NCaFgXLyqPP4kNOn5DaqYHrVBEoRoTExChQkqOa4QJyW70PMQC7M0VbvctZ358239r+UyRz9Eg2idfw3vQ4BJnMW8A3IcsFhIg8Gg1mgQBCFJkpPOBAzLqjWO5jbqcAqx7BeIBwX9sjWvN8XmH7kQWtwkHdvzG1Sr2sekqyIYxZ5+JA7jmAJsVDKM570ctQvqFXZu/3hmkva30wbCZ5yQBFVfw6U3eZEZhh0cev/X3dL0jMxLl69evX4jJzev7/VrAABH086uHtu1VEvsbtPilZAQCuMhGyv3pRxMq/j53qtv6j950M5vUH3fPDIgiUCsDu5avQVqOLoA6xoVZ+N5D95Qy/mdPvc+dX6nzAE8pcDGAIDbPBd/PJn/7n97+er1C5cunzt/8fSZc8dTTh45eizhUFJNapovTtOiEGLVpqGbOUse9n3rjVNK3mKkYJMcB/JeiLOxQok9eSsGZPOKu0hhb961r4mU9EjuBKCKBFE6PyVWD3y8irn7gCDIjVtpF/+8cv7in2f/OH/y9Jmjx1MOHU7efzAhftee3pC1UJm8sHilOTSaOnqKrqnlzGaKYdd1ji9pG525lEzIDPPOSxnw4zcS4LxOi1u9rhyE6jeisjgAEAYMOfwUv/HGs9rnFy5d/uPCpbN/XDj1+9kTv508cvR4wqGkffH7d+zcVbAhFJ+ab8jdB+jyKuajCtBuI2Q58N5C/03YZi4e8VZFr02hxCNdRaHEK/rERZ95l+uJEFfShbA3X/9ePAeN5HMElmWzc/POnb945tz5U7+fOfHbqaPHTxw6fGT/wYTde/fFbtt+aUu4LmQdGZ/k7H0NWH+uL7CuPH5rjyoQgct6RKh5VxsJPh/Bpd7VGUjDB/FcYJX7ucrhcGRkZp88fSbl5OnjKSeTjx1POpJ8MPHQ3l/jt+/cpYiOuZh8zPzmrZ9aZnl6JuDcDlIYvUI2zeO3oknPshWfl98tLTt2IiX52InDyccSkw4fSEjkjXnX7ujYuPCIyKzsbHaOFAt7UNlnU/jScOErciWfhsGnD/2SidyTbEByAPRQIMfgv1hk4Sps1y28GxhMPnYiMenwwcRD8QcO7tn36/adu2LitkUooiIUUW0vXnje8Nm/S7olY7gAr5F66Qf9VphWsybTUPBSNi0N2EBeAMAfRS/ovbMPHlYLZrxrz95tO3ZGx8ZtjVSEhoVnZmU5HGLo7/3mWR7lp6V2SvBYkUo8qgB/+k7s37zOEfuUevlMqWsNsjeHURoUGv1rWH6Tlw7aafp5Xd3uvfti4rZFRkWHR0TGxMY9efLUbhe74uW2oA7ZndzNRlIK3C5ZBpg3iTOrXMYs5IUdqpIFTYgTFKP+gUsxYJ7RqoWea7Xalta28orK+oYGPYIEheP/JtzKnqmxQOD/Xdn7hIhGNM/Jgk25BiFHbG2WIapQFktbWFCK+QfON4K5ns78g/m6QmdmD1eZIXBsEU7YxNmOf1s6VIWvyeSzw9ZmGdZnG0dR8XkAAB6Z/APnGMBjE/CxSe6rY1/quMrAxBa5J+FIJb6vVBaE8cDKTlIAXucC/qtbjC4BAB/tAQHnGsAXmNGCeSjPBuxQvZFKvKBTNtHywL0T9DqXeoUkx/gy2TCmOVAUwDDOMYAiI5gQX0uC6euc3HOtnlQocVgGtDKD5YHVJmZbMSpkO27INm7OQccxmQt6YQlIyTkGUIYBTFb/nCDMohK7k4stNEHaHcUye3avS5tt7Kkak6DeDdnGTTloRZ9V+nKucQBlAJNTjgFUYEDiEWfR0bm6tLrfDmkVSvxqnSyscANzHCjppja6MnY3upI5T9eYTTa4+g9oDtQS/pVcjALEMWcLPUE8Aormku+bIXBUAd4k3eZ01cibNADgvc4Rlo/yaawu4OhC7J1kKQ8AMEb7UXIZBvB/1JgBAN1jjp3Foj0fqiSm74y7gZ0Md+SBSbDnTa4E1st1spCL5UCd2aeSyzGg+Ud1CwCwO7m0Zpm7ulZPTk9kcgMDAAZ1jo2uASwAh+WhH/QyldlY72FmMQpQ5z9pyYKRjqLM9juiehVKvGNYXG8WrhE304Tfv9eYBdrNOXyubko14ZERM2QDBXLvVYEBg+yxwJq/qkAz3JU6mXpTHpq9JhiLGgYAtKnoCKU7RXlLLhqhxJ4PSbfy+FjqJSkadsn/AUsWnuvzQZlzjisyeZgnfPwyYIud+73GLORkC5nJxx6YMEoMRAHgd4+EYLMYDeiFAbb05QQtwR6+R0DnrFDiNxpIX9vSMmA+6hp3hOeJ6eehuej1Bot05R4A4ORAkwX4SKb9clzea7Y5uNstVJQktNpXYvKIrqR3egIzLMh9QcJ8+9BcNDwPy35Bebg7pzx/QVrj15RZDig7rLGFYiCpUOJFL62+1OvptIS+shw4WGmCGehheZiiAK8dtEtjr69J5astjgNP3smGrkKJHygnfOWsC/V4alg42j3m2F6MCSn3QnLy3hLTG/kuua9+fLXjrycc+8tkQze+jHiv8zNneAd2MlxZj1UKHJ6H7blrGpS/eXw1tukNjaFMUqWMNrYQf/zG/4cm3oF5b8xy1xssW/P57wrCpnLP95aYukb95yRP798cHmFY8GrU4RFjRBXwntnD0Xht1CewK9mFu1rvZg7Pw4Rs7J1/4Q/7bYF/Y+C11aAPOhnwsN+2t0QWUUUV4KmNpFnytjND/TMBAwCMJHu4ioCfFmx1Ja1GFWBpzaRlNt+SzNCDwE+Rdu5GA+nhkxVK/FKtxSNYmKFOP8AAAAPJnqkxRyrdGoa5fZdqLZM4Mz1rfIbGgj7FsGDYyFx+TkYVyGag6AL8TI3FIyF05lb8Awt6Tm0ieWZJWnJEPhZfZirptprm+hNfjx4jFraky3pA7pAVSjy2EM9po6Qrkh43ev0ZEDAAgHZyWa2UB3BEPhapxPbcxeuH7DPPfl7b9nuQYbmmD3R8GeGhWCGKLOy0BtFooMBC5+rf2xMqxFRsaN6R+VhyFVE3aB9FmSA64UFud3KjRub5oD25Sly+gKFylBI/VEk0vpcmjXtUMNPP2QEzLPiIOC/Jk1YhdkQ+drDcdLXOUj9k15hYjxS4mXoxdU5LsM8H6ev1ZEIFES0frhD4Uq3lIzLtW6KpGvz+nR0wrO75oH33XTE5WcoMs0kSyk1FL6nOEdpkZe1OjmY4B8M5WSAUB8MfsTs5g4Xtm3DceWU9UC4LJCAhFPbcNdUOfu5eVJDAAIBRlMl9QR0o5zOivAJD8sh8bNdfeFKl6dh94kodKZTjD81J94i9JYR00RyyeQgJFUR+OzWOSVPI4MOfnRA8MP+eyIJxjCl+RcUWidqWcnqRp1IvpJxQ9uBUKPGYQvxul3UcY2Z4AZoV8WcBw5Ywii3vtSZWmLbfwRVKMe0vOOAoJb6z2HSkiqjoteHy5QfYYtDC3AALzVsdXO+4o6zbeqXOklBuivJK7lvD0YV40j3iej1Z0WvrG3d8oUhuLoEFbJbjvzHBKfaD3tn43p7dRp2tEfPioPUKQlQBfvKROa+dqhuyqwwMbmVtDi4I9x64wuceeIa2CRs3YmSE4utrtxlun5NT/wPIduICaKYMtAAAAABJRU5ErkJggg==;fontSize=28;" parent="1" vertex="1">
          <mxGeometry x="1582" y="-412" width="80" height="79" as="geometry" />
        </mxCell>
        <mxCell id="twCWT0G4kdYLpI0i5w0t-66" value="Azure Pipelines" style="shape=image;verticalLabelPosition=bottom;labelBackgroundColor=default;verticalAlign=top;aspect=fixed;imageAspect=0;image=data:image/png,iVBORw0KGgoAAAANSUhEUgAAAFkAAABSCAIAAACwru87AAAJ0klEQVR4Ae2b+VMU2R3A93+JYrLxh1Q2ZTaKYV2rNNmNa7Sy0RUZBBEkcriiwRUUJFmDHCOHA4IcKiC6HOIqt8o6MhzD4eoiiMTIMQNzMNPDAHN3d2ro4qV7pu9pZpqU1Cv49us3Pe/76e/Vrx8foO9/Vgl8sCq8/4uKlwWMoKYll9rgGJuxCdtmDU67A/G++SJloTO5yjugpDJN/LW5WNmssC2hZC7/e4PZAnvgEB0LswWuV5glUlVY7tq2tBqdxU7AIS4WVjtc8L0hIk+91iCw68tHlvGmISIWMIzKHhr8YBEA9I3HkBhZwAjaPbocVeAni8BwlLWLkoXB7Eqt0oI75h9BjCwQFK16AvlHf/y3iJHFwBvLkSt+9Q6MiOhYaCFnyi1/e4cYWcAweke+wDV3SKSqo/nqv1doCh4YytqhO/KFig7T1QfG5EptVIFawrowEZddjKvssbJZvA8zypF56vTbuspOU4PC7N1uPDJdvK1jmY9ExMJig5PKNYzK4wdEXFHLmo11z0goAC513WbZQyObgk0sLJwu5NZjE15PRjkyT13UbAQ60wtFzcZIpvpVLCxGJm3x1+YY9QcDJFJVRq2urpvOIjzo/Os7PX0kEguLS9/pgZ5shGMF6hsUMcIDATi8+dh0opguGAWeBYyg9/vMbPTHj0mu1AAl2QupVTr8RTzkwLP4adJ2lPtzR8EDA3sEYGTefYOH/vjDALMwW+DMOm7egc2+ohMCGrIXrrfRlfbcWCxanOMzSz2vIKHaXTnEGN7xtw7I1V0L7BGAkZWP6FIVBxZ6k/1c+eu/pA/tTlYK0vakDkukM0A9TkLlI/LiCqhNKpS1C2EXdgccmf1yW0KPUG37yd4vL73lpD9+sOwh28oCD6XwgRF/EQ+ZrV20D+iForAtoSc4sfez1JHDOTyNIixXde6mFq8kG7leYb5QLUQekd2fEpDFJ0nKry5PetwWTocxV2ernnBzk+ouU3wJXTnH1i7yGyeFYhGc2Lv/H284ae49WCJVfXtXX8+l7sxumA+X0i2LBIDFH1N+8taNR8+xQvW1FraZtaQVOlZIByIsV+VvFp+eHvTRO/DUIvPVpW3MOErboMh8BhD+ZhGc2Pvni+N4ZXyXj+arsxr0NRTlRnWXKadxPprJIrBp+NUudp39MdSH3EEFLlyqSiyZu3hbV9xivPHIhLXiFmNGrS6hZI4+RuCv6T8WIV/3+5JE8ZNeI9lPLLaf7NuXIbB3CE7ETyx2nX0emj0t+OyFvWB1l4nVO0Rf6ovgxN4Dme94zFuSqzpaoJHQFgU8Lkv1kdahxbVl4c4d6a+pvp6mXyJVR8t0caXGmCK9f3CMzdjWlsXub14czuG8dUIiVWEg4kqNcaXG2OL5tcZxpkLjdBF251DuOeDnIyGnlDweRldAaDEK4PfxIj377EhjbqSnogrUfa8teKNAUer9WvxY7EkbI/1umk6JVB2z4hqAAhDWyFki8tS1T00uwp4cNxYh7eLT04M8Cgq8awAKmBAtW5P3rOUdkJW4OwkzEMFY/P7r/gOZ3J7KV4Klp2sAHDEynbAhQyJVnSrTtA0TcgfeTYRhEZzYu+fCKI0jeJ+icY24UmO00CDCclXFLcZ3GgdMCJd4FNQ+0jmkD05ku8C34/TgIY6VVbSM0iKiZXSLUd5YGXtiZbPdo4RtagQGqweUdoGiaGu/bm/qIOOKzvaTfZxyB6gjgDvgBWFdI7pwNu++4T8aB0JtDqsoqO0CRVEXjLQqdbuT++lx7Enj4B1MrqEVMEYklWv6xy1WOwsMKzzo7AID1tKn3Xm6jwpHyCnlQdYLmZJcFY1rrFgE5yKN1EEi89U5jfOmJa+0CWyATGBm4XYWpW7veXJn2Xlm6FDWFOmEPDoZXUOoyuqbm9ofXi7RxEgyDu4+ViwwZ9mRRGIdnyQNsFnCk0hVVAXVStbQ0m8O8MBKdRiRp656YjKYXTxAsGWBgWzp1/7hrNLbWRjjBWmJDeKlIK4hkaqSKzXKcQs/CpiCrOwCGFWbUveFV2b5a8bzig4j1VorU7DU+e4ax6/O3v7BpDE6wTz5CdxYwDDSptThTWN/2tDY1KLNgVQ9MYWTbe5f6xL7q6zp660anl5BZMaNBfbZNqXuTykD2xJ69qcNKUaMWOq22pGydgi/Y2ytS+yDl6d2nn31i4hnFW0qolI8j/iwQFG068f5b2smhicW8DWM3YHckS9gWwoYXcPHOmJvxtuP/jawMVweFC4PMAsq8g4nUtHpfs1P6xo+ldihOTM7kkc2SJ7+LMzdxMsCRdF5s+t8zXz8dffylHfzpcQOzZn54uLEb04MABCiZmGxIw8HlrMbofQ7kDeOaBn/EvtQ9vT2Uy9+HtGNmQP4LVK7cLqQ9mFLZj2UWQ/l3INSawh24X4MZ71TG19NHc6Z2ffPt5uP9QL98YIYWSxZ4ebBZQwEwJFWa8SsI0bGs444kDkZcublpiOe5gBwiI4FgqLKN7asRrdF4FtWI5Rea4xxuwbnh67DuarPL4z/Mqpng0QONPcW/MHC4UQsdhg0qx2fPUnSiM2JNPYuZTUQWFxugJr6loqajVz/VeZg5lRI0ouN4XQUMC7+YPFqytasXASt6+Wyx9sEbx52pzteZOOso2VwecmK2BxI7dMFqiIdHxrCclWh2TOfnX/9q5g+bxMg7fEHi/5xa2WnCbT6brPdybwoYnO48wjmJu3DFufqAoLNgVR3kRfpeBaHsqe3Jg6zMQfARbwsUBS1OZCmvqXmgWULcUHJ6kDKOghFOpGC2xw+jFQAJVkKomaBoqg71thIjMi+4ixHrnjG0S8vvfs4YWjTkWcs9ccPEzsL71ACeq43z+xKIayPfn5hfJNXBYXXll5elywWLc7Ce5NB4fINYU8/ThzedW50d8rYlvihjbQpkx6En2pwfrET3H8PwWqHpXXvPozk4wX0ONafXfSOQkEsigV6tUnPrj8Wz/+9sDWBbclAqjNV5/pj4XIhTQrt5ijKxwoqVRn71x8LLHw0PtP8+jjnCoIex3plgaJok0K7NYH86ZteZ6qz65iFC3Y7y8bVFToqDdn3B4DFXbl5SudQG5yMbdG6+hDikVdxh00K7ZYTPewVphkZABbgIY1RGJkkbBTEESCITQrtb+MEcJb/BxZY7KC54SxPBYXLb3WqCZj5HlC+H/GoOxnNAQxgaRfYhJsU2t/F+2Qdm6O6hycW+KpP+FyAWcArofSjWJ6xIyhcXnBv0kHcskrQj8sBJYuhCWtN1wKPNjZt5zIB99h73ZotJ3q4tn1pw21KPdfvohlPycLmQMwWmEdjs/xFM6EAnqJkEcA5Beqr37P4H/n/AlhEgokofqtrAAAAAElFTkSuQmCC;fontSize=28;" parent="1" vertex="1">
          <mxGeometry x="1462" y="-830" width="89" height="82" as="geometry" />
        </mxCell>
        <mxCell id="twCWT0G4kdYLpI0i5w0t-67" value="GitHub Actions" style="shape=image;verticalLabelPosition=bottom;labelBackgroundColor=default;verticalAlign=top;aspect=fixed;imageAspect=0;image=data:image/png,iVBORw0KGgoAAAANSUhEUgAAAF0AAABWCAIAAAAi1A1XAAAUJklEQVR4Ae1cCXgUVbbusK+KuIIDCuKIPhcYcRl11Bkdn86m7ymMOoz6jfOe23uOPkfpzkIIEggJwSTsEHYSJKxGdlDWgCQkRBJS1Xun0/u+d3Vt91F9q28X3dXdYYghfF/y9Zfv1O1bp+75+9xzzz3n3JKA3j8xBCRijb1toBcXcSXoxaUXF3EExFt79aUXF3EExFt79aUXF3EExFt79eUnwMURpBsN4ZO60G7Mv+sC9zmiDv6gD7W7SYphxR94jbT+K/rCsOCkLvR/u63PrGgfW6S6+UtFv2xcIsUkUmzELPmoQuWURdq3akzbWnzXLjqXhwvLAmeI/mCXBQEB4Uj1/6FybbOJuBZV5zJwYQGoOue9e4FaiEL/HPy2QuXDi7TwM6FEPTCX1x3YbeRsxYx9VqOXukYmED/MzuISpljZftuNsxUIlOtnKd7fad6D+380Ezo3CT+4LXJcG5p12D6xNA5fHxn2fKUes0WuIWg6hQtBsZ/vtSJEhs6UT6symHzpVMBHMHmH7CNnK7JknN2RSLEXVuv9EeZagaZTuGxo8tz0Ja8pdy9Qb2jyElSnlpuTutAzK9r7xKCZvsXoCdPXBDSZcZHbIzfHQPn5AvWp9hDbKUw48VkWGLzkC6v1UGWyZFjeQfs1YYYz4BIi2T+s74BSDcjBN//ohb82xbAHFIEJJZwRuaFAMeuwvd1NplIEV4j+RYUWMrl3obrVQqTq2XPaM+CytcU3KLa+fLrbivyRH/ThsUUqKKpEivXLxh9dol1z1hMixXXpkDJwW6FSIsX6yLAv9tl6jvypRpIOlwjN/n27GQo/pkhFxiYAC0DxMSeyGgid/jn479d1GMSW5DDFvl5thD1Hz1WmGk3PaU+HS4eHgvqfJcPmH3WiQdMMO2OfDQo5qUL761Xtw/LlCJ2fzVOtbvCY/Ymr1WFVEEG5Tx5A3HomkQ6Xs4bw4DzOSbtxtuKgMi6JEJfXq40WP7WhySN0WAbk4P++Rn9YFb8FAOCPMMj9+WuNqWfCgUaVDpfaNj/UggfLNBpn3Kwm4BKOrtmeMPOn9YaE/UFFnUu4eL27zYS0DI2gZxLpcCmvc0ExnlymcwbjfocoLlC8Ha2+Z1e2ozl16xzFSV0ISV563Am/unG2gqTFLTTqfHWJdLjM2Mf7uC+s1gvFSIMLywKTjyo57hwetTh9ZFjZSReSsLbNB3EZWaBwheJAow49h0iHy+zv7FCM36xqD5FxFz4NLiTNYtYIUpl+2fiS024k7eoGD8LFfe3iUtnghmI8vlRnC8R/3lS4GDzUzEP2UVE/Bd44sVTdbIp7cXkHeaBvn6uMLfoItJ5FpNOXvThvd+8pVV+wxsVLxoVi2O2tvrFFqv458SDD/V9pzhrCQvlfWsu7zo8s1vYsGJJGkw6XNiu/Mxqch29r8aF7hbhMrTK0WIgPdpmFYZdRhcoZ+2zecHzqAcDZnb6xDWT2gZ7u8qbDxRagf72KX1ze22mO48KC7P28X3fnfNW4+fENwaBc/I3NxmOaINoxoLtW1bthzKFvNtbzt0jpcGFY8I9aS1Y0ejI4D7cKXNilp13CKQOtycBcvPqcF7ozCA5I2IP0b2O76skV2h69REdHnA4XAEBDRxg5qU8s0zliXozCEXl8qQ7CAR3iv20zWwTAJeCy7Af3gKjpGZSLr27wJHzbAy8z4MKwAHkxWVLs873WYGzBvmCN5B+yv7bJ8N4O80FlIJA6FndYFbhlDh/W+tVy3TUR682AC/wl/+0rDVSNwXn4+iavcIlJ/1OzAJzQBq+bxe8qs2RYzfm4/U5/79X9tlO4HNMExxXzxnVgLi7bb9O6SOHGR1QGT5heWe8eEwvTDMrFZ39nF+3ZAxs7hQvJsBubvNBASKRY32xsUoV2Zb0bRWQSBGNYcFgZeK6yfdhMXlP6ZuMffWMRbiYSbulpl53CBQ66oSN853wViu9LpNjwfPmHu8zVzV69h4Sfo+pg7kH7PYIkiUSKDc7DP9ltTTBALAuCJOMI0tYAbfZRtgDtCtGdDKenApGgWFeIZ2gN0I4gnfDQVDcmt18GLgCARmN4apVB6MKhJUmU6JuNPb5Ut67RQ1/i4gGVI1Je5/pztWFSuWZcseqWOYq7ilWPLdG9t8O8sclrj616ycNN1eIjmPWNnvd2mB9fqoMMxxWrHijTTK0ylJ10YrZI520ifMTl4QIA8ISZA4rAQ+V8HFsUDtg4okBRfMxh9VNCS0RQbFmda8w8FZqVCRyG5MknVWhPt8ejE6mwgO0sAEc0wckV2iF58ZihkGffbHx8sbq8Lh5vTM/wX8QF3hYi2e9Uwfd3WUbN5aLZ0dA3NnquckKJ+t6F6j+u71jX6EnOonnDzD9qLUKHsI8Mu36W/OYvFUNnylGUUyLFBkbdnIzTiqTZdY0e5GHBkQybKb9ptmJ4vlz4IIkU+3CXBflfGaG5bH0RcmQB+HQ3H6O5fpb8tD6kdpKpvDsvwbz5tREJPyxfPrXKUF7n2nXBf1gV3PKjt+ioA207JFJsZIEivQdIMeyiUy6kd32z8SeX6QqPOGrO+w4qA9tafItOuV6vNqJ8xsBc/P2dnbX9V4TLxajtZ3t4XLKkWENHWIiakGZYIN1vQ6CMLFAcUAQS1IGJWuJV9e7rY/7OoFy80ZCS5yFl4JY5vLZKpFjhEYeXYIRzlgWAoNhGY/i+hbz/1S8b/+pkpyZUl+EikWI/m6fUexLTABCdC1YCBsazpNgvFmkV9pQ5fIYFVc1eBM2zK9tF15QIzb6ykY9ajCpU7mhN5y6eNxMPlvHQ9M/B26wpn45+y67ERSLF3t9pFhVj1iF732jt0Jh5yqPqIHq8kAiSTIMhTDOAYUF5HR8JHp4v3y4mc117CBraQbn4/KMOUc+IYthmU9hLcGvhmY4wSuZ8uMtMZ1qfugqXNrQETK02BpKWxYkL+bKPv20ziw5J4yQfXsStca9s6AiSTJBknlrOhzg+rhUxCm9s5rN0dxSpRC1ahGbfqTH1kWG3FSrlUfX8dLcFDnJyhVbriqc3hL8NorsKFwy5thIpNm6+qvSE84Q21GQMNxnDKO4nkWLVzXyGG40AANBiIZ5Yxu/OHyjTKBwRmuHKbaAPOWWx9pgmCFnB/9HEFr8q/327SCrK5KPequFzMsPz5bva/ACAY5ogVLFb5iiPazP4AV2Gy/OV+rdjQ4EZ61GFyjvnq+6crxJGfGF6v+a899VNhpX1XEi80RBGk18ixd7dboZb9qpzXijGgBx8bBHHB33uiO25JDJsa3Qj2mAIT6s2zthvC5KsxU9Ni+V8JVJsUrkGpoZVDhI64sNmyjMmPLsMl//YaACAswtjipQJjgOaYhIpFqFZgmIHxsLAn+62PrKYdxH7ZuPPVepR4mHzj94hM+PRYiETIf191FqhyPGvlrdP38JPsYvb9/sWqlH9UoeHgs/KkmJbBWFZoeYiuotxAQBgNuKrk663akzPrGifWKoeW6S6NRZ8kUjbLH4qRDJ3RQtEhOINyMHfqjEJbXZVs3dINAss7JZM78b9DAve2crPGtQhS4o9uUzXIqgp0bjI+6MBk0F5+LcYN7PS/HU9LvBhIZK1B+gOD6VzkQcUATTcPdEBndaHhK6HRIq9uskg3BYxLCj83gHtC9wWXLASwg9i+HGtFQDgDNJPr4jnOSVSbHyxCrNFhO7MD/owNII3zlZALbsKuAgfGaHZW2NJpQ92mkmGZVmwvdV3e3QPMSAH/1N0DRLeEogwKDn3do0puazmj7FqpbsXqGHqUu8mn13ZniXF+so4FwlNH8Q2/xCfvYKmHbWLEj+VviQ87J+xssUJJeofzVwqimbYg8rAZ3usJced7qSiu20tPujgD8mTb2gSWcIOKgIw6zJ0pnx1gweu/bgtMuuw/Yt91uTaT5Uzcvs83jmevsUUyZQd7yZczhrCcFhZMuzFtR0INYphk92ZZhNfXyKRYhNL1aIZ2yDJoM3UnfNVeMyBZliQnKJxBmlhlL4h9d4CDaybcAmRzP98w7tVEikXlDmtDyU7qSGSy1v+PFY6PTxfLsznoUFDYkerD20XRhUqt7X4PJdm8gAAJM2eNYRf3tABt2b9svHP9nD2KONfN+ECADD7KGQysqTYmHmqv3xtXNfoaTZxBrXRGC476Xp5Q8fIWOn04Dy85LgzWZuQSMEIk3OAT+9JpFy84qW1+rKTroaO8AUr0WohNp3zTN9iHF/MxxizZJx172QdRffhAgAIU+xTy3UwUYcWFFGiXzYXXScyWQEAwOd7rcLQqig3iRTLkmK/XHYZKZpuxQVqzYx9VljgKirDgBx8ymLt4lPujKYRKg5BscvPuB9bokvlTGbJuH3JJ99a3EmzDKleMtHduADA2cVWC1H4veO+2GYSAtQvG3t2ZfvS0y5d6lLgZAEA4Pbf7W5y7VnPsyvjteWQ5wNlmvxD9mYTkWyMRVmhxquAC3o2nFln9KE6XajZRHRSQYS3i9LnTOE6Xeh0e6iTpkSUyVXGRXRMPaGxFxfxX+FKcck+wEdJXhJ4a+KPErQGIkyTMTzviOOltfopi7Tji1WPLNZOqzJWN3vVTjLZrxHcKk5SDKtykhuaPNOqjZDhlEXaF1brv/ze3mohYMhO/M4UrVeKS9lJZ/9ogPKhck2KR1zSTNLsYVXg9c1GdHAnYVUaV6z6dLc1TQD4EnYAsABcsEb+uYdb40QX7Ovy5a9vNmbcKCawvVJcqpu9MBExKBf3EPHaxITHoMuKOtfF8ycJWCRccsHHOSnDwIgVJOo7wncvUKNMQwIreJklw4bOlJccdyakPRNYCS+vFBfMFhkRS2sUH3MIWSfQBMUWfGfvl80fX7t4aueeBeo/rOvIPWgvr3N9/K3luUq98IzK2CLVYUHxfQI3uDzXYv4hsdKAPjIuIfH0ivaPay2lJ5yf77W+VmWYWKpGJeiD8/DCI45OQnOluNAM+2QsNHvrHKUmRTyZZcHKejca4rCZ8rlHHBeshLAiwksw9R3hj76xDI2JOqFEjdvidaAJ0DQaw8ICgbe3mup0IV80+g97RmgWs0UqTnFpX6g4NxQoMkak4L1XigsAYK+cL2eVSLFPvrUIRUWStLtJFK8cli8/m3pHS7MAlflKpNjLG7jwaPIfzbDClF5FXbyqPLnzd6og2nbdOkfZGUepC3ABALyx2Qht3ogCxYLjzuTSw9UNHhhPuX6WfENThvo6gmL/8jUfo71xtuKYViTfpHKSUNR+2fj7O/lQeTIiqGVlvQeVYRQctmcsfOwaXJpNBKo1GzpT/ubXRr3nkgQNSoP8bq0+OQqFRo8Ik48aH63Q6iPDcg7Ykr14aaxQ9rZC5flooAvdK0owLPjPjQY4m55aphPWlor27xpcAODiksJKi9FzlSXHHRY/5Q7TKkcELRPLz3C5EYJiz5uJynq3I0hDQ8gdLLBFio85zH6KZliKYf+3lo/XPF+pFwZWgiTjIxi0zL+4Ri8qWHJjbZsfLluj5yoz1pF0GS4AgB2t/gfLNEInYkgePqlCOyWaSITQYNHc8LwjDhiCvqtEfTw6TTY0eeD6Pa5YdSLasuYsr/n3f6WBpxMIil171vPqJsNzq/QSKZ/hXHM2w6xEAOH2CCzBvi5ffkBxyZkx1AcRXYkL4FwsYmoVr65IR4REmGJDJDM8X/7EMt3yM1wF+EffWCI0++gS3d1RjAbnyd/dxtWW17b5R8ziPJ3xxXym9Yw+JMxqQrZ1gvNNSCpRQu+hYKq3jwxLEwaE93YxLpDpHtz/m1X6O4pUw/PlqPwkKgYOz3fdU6oePVf529X6ftl40VEHw4LpW0w3fal4ZyuXUZ53lPODdrT6r4seYrqrRA0z0GY/BVMIQqATTguKIgIbdW5yUrTMa0AO/k00M5um80+CC2dBaLbNSmxr8a1r9HwRSwZIpNiJaGJ4rzzw5DLdyNmKt2tMMKl+Rh96rlI/JE/+52qjysEVwZbXuaC/M2WxFtU5HdMEFxx3Loide5NIsaIoiGkkRF+1WAiYtBpRoMiI5k+FCxrNxVBjkGSRq5Z3iCvhZVngI7hizHCs+I5lQSDC2AN0KFoYTFAsmo+vbTII85CQ86TYQfXJFRrq0qJG4aOF9MozbhhCRbka4bcJdHfgAgB4M+aPPLZEl+ZkPhrcWUN4RAFXsdA/By+vcyW7Gyuitgm+iWc35k/ugFhBwhNmHoiVBv1+XYfQLU7oCS+7CZf98gCsDhyQw9Xyig4FNeo9JHpvwbj5KrXgKC7q4wzS0GPKknHRT4s/3ZY1SDL/tYM/IH8xJ/V17G0KiFsy0U24+AgGZU4lUmz6FhM6f5Ewpg4P+UvBSZW5KcwHy4LSE0604bp3oSY58Qo5ExQr3W+DwRCJFHt0iS7hiaKX3YQLrOS6I3aCq48Me2ZF+/pGzzkTYQ/QQZIxeKk6XWjRKRc6n95Xhk2rNiR7ukgMW4B+dVPcJxhbpCo+xhUjdXgpf4Qx+6gWC7HxnOdidApmbLOkXPl+qgpAxBYS3YcLd5rJEEa5RFikO75Y9ehi7dMr2idXaEfHSoHh6y1e2Sj+qgehACYfhV6iwh1ckGGjCpWTK7RPLdc9vEib8FKne0rVJ7RBYYWDkFUC3a24AADarJHHlujQFk7oiUAaxpCmVhn9gohBwqCFl/4I89/bzcPz5WnSdQNz8UcWa9XOzGWYiHN348K9qIFgVtW7f7c2nnJF6EwoUf91i2nvZb7VgqC40oi3a0xcyjVafI4Y3lCgeHGNfsUZd8YFCCECiauAC+e/AOAK0ZgtUtvmr6x3V9a71zR4jqiDWheZXD2fMOJUl0GS0TjJ71VByLCy3r2z1XfBGnEG6U7OHSHnq4OLcAQ9k+7FRfx3+X9eSeZUoZu1jwAAAABJRU5ErkJggg==;fontSize=28;" parent="1" vertex="1">
          <mxGeometry x="1692" y="-832" width="93" height="86" as="geometry" />
        </mxCell>
        <mxCell id="twCWT0G4kdYLpI0i5w0t-68" style="edgeStyle=orthogonalEdgeStyle;rounded=0;orthogonalLoop=1;jettySize=auto;html=1;exitX=0.75;exitY=1;exitDx=0;exitDy=0;entryX=0.646;entryY=0.803;entryDx=0;entryDy=0;entryPerimeter=0;" parent="1" source="twCWT0G4kdYLpI0i5w0t-58" target="twCWT0G4kdYLpI0i5w0t-58" edge="1">
          <mxGeometry relative="1" as="geometry" />
        </mxCell>
        <mxCell id="twCWT0G4kdYLpI0i5w0t-69" style="edgeStyle=orthogonalEdgeStyle;rounded=0;orthogonalLoop=1;jettySize=auto;html=1;exitX=0.25;exitY=1;exitDx=0;exitDy=0;entryX=0.375;entryY=1.01;entryDx=0;entryDy=0;entryPerimeter=0;" parent="1" source="twCWT0G4kdYLpI0i5w0t-58" target="twCWT0G4kdYLpI0i5w0t-58" edge="1">
          <mxGeometry relative="1" as="geometry" />
        </mxCell>
        <mxCell id="twCWT0G4kdYLpI0i5w0t-70" value="" style="endArrow=classic;html=1;rounded=0;exitX=0;exitY=0.5;exitDx=0;exitDy=0;entryX=1;entryY=0.5;entryDx=0;entryDy=0;" parent="1" source="twCWT0G4kdYLpI0i5w0t-59" target="twCWT0G4kdYLpI0i5w0t-58" edge="1">
          <mxGeometry width="50" height="50" relative="1" as="geometry">
            <mxPoint x="1058" y="-720" as="sourcePoint" />
            <mxPoint x="1108" y="-770" as="targetPoint" />
          </mxGeometry>
        </mxCell>
      </root>
    </mxGraphModel>
  </diagram>
  <diagram id="DkOZank5ixwMNmb2d-sc" name="Frontend">
    <mxGraphModel dx="1737" dy="1057" grid="1" gridSize="10" guides="1" tooltips="1" connect="1" arrows="1" fold="1" page="1" pageScale="1" pageWidth="827" pageHeight="1169" math="0" shadow="0">
      <root>
        <mxCell id="0" />
        <mxCell id="1" parent="0" />
        <mxCell id="aeqWjK1lHeweUG4lIwSK-1" value="" style="rounded=0;whiteSpace=wrap;html=1;" vertex="1" parent="1">
          <mxGeometry x="40" y="40" width="980" height="840" as="geometry" />
        </mxCell>
        <mxCell id="XiYlLXEE49jbWk-wVxOw-1" value="" style="shape=image;verticalLabelPosition=bottom;labelBackgroundColor=default;verticalAlign=top;aspect=fixed;imageAspect=0;image=data:image/png,iVBORw0KGgoAAAANSUhEUgAAAFcAAABfCAIAAAAS+cxWAAANYElEQVR4Ae2ciXMb5RnG+TtKcGznsB3b8ZWEEBpCCNBwtE1Lh3J1psNkIIUyYVoYkh50IAMTWighIeQOTkgIcchtx3Zsx4d86rBsXZYs3zpsy5J17kor7WrbvT/trqzDKycxZp7ZfPos7+r3vO9+Wq0e8wC+9B+OP7BkAr7kAtUES71A+LDkwpILzKK41At3oxcgDB8IYvIA1uZD6z3oRVekyhWp86BtPlQewExBDMKiTIUW7t8F6gU0iuth7KQjsms09PwgvHUA3mSAynWcNhmgrQPwrwaDb42FTsyEdTCGLZwJmV8dw1F8NITtHA2CzAnHFTpo52jQHMTCC9IZme0FRQD9yIqs13M1T8gPPuERA/SxDVFBaKatyJQLSBQ/6gg/aYQrgLYHCZMcV+igp4zwqZlwRp3IiAtuNPqpHVmXbguIGrTPhrgz5oT0Lowh2O7xUNpnAd8CbaCc1AYdtHssaM/MOiGxC65I9I/DqS2EBDaDOsegTOMv1/hfMkO+DHSElC6EovindmS96EKQBGe5NlCm8c+tco1/nyUo+TWFlC5UzoQ36ekGnhuG/mm/ryye+rxlgEr7vLTU3k0a73cORNqLCclcsCDRCmEl40H2+0BIalyq9pLylKoZ9XpKablLe0mp3KUq98Nqjzsi5VWVNC4Esej7YzBX2D4BpNpbRiohYSnJSWyVs5RKlLO0FLMlChel94f8iHTX2tK4oPRHtml9sYRM9YAalqrcJapZWiyb0lWipNlYSGIgd7JaK3cS6nGu7ZmhtFnp6vaGpTovJHAhiuP7xiGmhkzdQEimgBykPAayhCbkIAnUblaOtd2kuhxrOU1/POyTqh0kcCESjT6ncdOEBF4sYY+zhBZdRgBvhsbrBvGo8fTaTkLFrDqmimO1o3fGFZZmdZDAhXY3UpJE6Yq7ACSKLZaKgGyfKm6fBFUkmyRlL5IxarMXkSqR2TtnQ5KcFPN1IYrjbxu9ZKNOrxVydvILSKLGcBa3CzhlNCdJaytqI9VqK+JkLWq1FrZY9w7M3hMuBNBoaSdXwKL2SVpEDZnqUQO6hgxVG0dV2Gql1UKwMbIUtlgKm3maKLxDaA2pDa3We8KFUThC9SezZSC5utmKWunSMXgUJw/PQuGB2zVN43w1jq2JlQtB52/EfM8IlQchGzVNzsIkOAnshlGeCm6PUDL5JbiOnK8Ld2ZgtnpUlxLbZNgYsIKGUVoMGEtYUD/MV91QAan8uiFCtUPdLvju98JFm5/XoryirWkY5ahYThG8YQqP3VKQ+bVmTrfM+bQG82+Rqhm8bPHefRduTwfW3B5Zw+LdHuFXr364oI4SXUaCs5aWGKGZJcyvGQRkyq8mlAfqprF1OnD3XVDMBmNalOhSoHrUmCggUz2mhvk1g3mETLQ4NmNeNambxrwYDeTdoLX6xgCt6waDJ3j3XRgOIDFdGlO9wfya2NIRqDw25iFDSKESkNcN4rqmXw3IGYrcfRe8YawQRI2pHkN408iWkRskB0kDX9WtZrTqqo7WFW3JDf38LZDg21osir/UPs72p0j1gLpxNSSROB4K7Ip2lVCXNasArfyxH9QbHaP3hAs4jt+yevOEqMLSxUMFIClgkJMeX+pbyVOVelWVusHmuVdcCKLYo7XGmDIyYCsva2jF1pBg41Fd6ltZpaa0okpN62LvCp5+UK1g9PhN3UxQmlsM871qwnE8iuPvKSa4AgrxAEIOlYd3sZfF4wYXlCsA5V5Q5n6vzP1eQekvnSNB9J75ZI3jeKPNW3ZVwxLSJU2dcwUBGYOae17BSJ57ntQ5ee45efEPytpxaT5QSrA6UqelP4y+KRuma8hUjygdJaCAdCVpNgbsPAFGKedcD63venI4ded8151zltPOOyZIuhuwEpwRlBE9075YQgVYOhYy9xzIRo05No7zTHfOmS5Q2ZVdpDqzKwkZZyFJ1kVqJ5K58P8F4kP5WN55Re53PblcDXs4MLaSBGEsZGVXDimKkNh+C6oj+9uO7NO08s507leMSWiBZGcE9Zr8YfRdmXnFWYIwmxVZOg6PIyTZvo0hXH66ndap9uWcZMtPyZafJJR9sv3Pd4xuKa4XQR+l7AUcx63+0BNX1GQlGUimhtmn2wlxbAwniUdB0tsTsuUn2kBlHW8j1brxfPcUJM29xgy6gON4n8P3/LU+mjYh4fG25bRas46TOtaaFaOWrKOEso+1PH9FZXRJ8AkS5KfGEvcCtdNRD/xGgz77RBsNdhwEa8k6RopkowizjjZnHW1+6AhPdx76htPrtZoRtwQ3VIQWSLwugAeAwui7zcaVJ2VzcjaDnPT4cNNDsco71vJB80BQuvdF8HVS44z0gjMSbfKi/7EjL3RZH72sZqmWHW6i9XXjMp4ONSzj6eDtZYcaKi6qXu621ntQR2byGxlxYQzBPrIh203wz8kg3wvmYK0z9F7/5IrT7RzkwdvLBHrwq/oYHahbebJtb//kJUfoaSP8qAH+5SD8mT3siGQk6CVNL0AYrobQD60IL8W42QBfcEYMMNbuCe9R239xva+ssj3nyJ1lXzcQzAfqQC07dDvncGPp6bZnrvfv6bPL3IgBxo5Nh8F82AY99OVUeFDqBKAELhiD2N8tyGMDMD+SpIMqdNA/LAQMJQ2EXZuCDg84PtfY/iUf29Vqfq1e/1q9/k9t5g+6R//db/t6YPrqJNQPoeyvvDIkkg96zgR/YkdGQpL1xbxcCEXxE47wRj1BK7SAmnnSCLNI4EAPYzoI00KoFkJ1EKZnnAKfU+uJxNtzhQ7aboI7fBJ8JZP+e0QUx80hbK8lqUTnMUcYZEtyrIext8dC8cxl5/9pRWzIfJsinV5Ao3i1B/2NWaRX2RcHDp4xwRqIPimStMAAY01edKvYWQbuuVwHrddDr48Eh4PzutGQsgsYjrf60M2xWW7eKxM+vOgi1siUdHAqvCHp3OhGPdTpTz8CmJoLQQy/4Aw/pk8qoQiGF98bD6bUDqoA+sYIDO4h4fhZI9TiTfOufAouYFH8iiu8WefnUlxzRNhif7TDGGjxRgwwmqQaPZHHUj/QUwZ/py8dI1JwQQ9j23SC8BqQShSG99iZdX3es9NIkhYYYHS/Ncj+bkqDjf1efeoZ+mRdMMLoszofHTqkYmspbncO+g0Qmoz6/Og2rTe9Y5X1enaZA84UL7eTcsETie40+bjcIZdfEyba4s5UqGZb3WE9hCbUqcngfI5Vrpr9wpLa/bjELkRx/MwkvE7BpQ/ZGGKqgw+GfLpARD+n+v2RV/WeVPfMe36Fwtk4m8JVRGIXbCH0CZWTi+RR0cO0to8rnTI3MrcL1x3BLUoJDrdd7dL6k10pE7vwV6OHFzRM+2F55/SRiYDeH44nnT/82YivRJgATGtm94A7kNw1RAIX1F6kWDYpod7UuXq9SDwXer3I79VOqQ63rmOyy53UTcq5XAhi0T1GN5Ay5LJ5aU9u6ZpqcgbjuVAzDZfL7GnvXPiLL/XORKKJP2XM5YLGi2ztsAsSh4KEHj+SmOAJnw959D5EVO9onZIfrnoq8fvFXC58apotbBqXXNu7bH2ekNCFNidc1jwh+eFeVkzNJMpExnVhAo6sbx4XBtbmP1PYOHp2wqvzIjx9YnTNf+fCPZQ1jV2y+uY+K+K68JFhRiStJkzopTXzhx6bxhPSeTnJXfBvOy0ZOuIrPbbQnH9SIu6CL4w90TxWUGvOkDY1jdyw+UAXLk54H24cydDhCuuG1O65onDiLnQ6odI6c36NKUNac2twv8Gh8wRZfaidKsjY4fJrTHv6J4VfQ7AzIi5EcfyQyVkQL5IXL8WW4vyLsnGFC6Jc6HPD25qGY9ONQD4uxT2L7qeo2uQJx71JKeKCL4zt6pkQSavFy+alNb+2euCmxaNzB3Xu4JlhV15aO0npRV63xI2Cibgw6ke21g/yY3hsylC6wTs9E1o3rHXDTzcsxOF2yy3xlkgRF+ptnrwrWjBlmKFxyXWdbNp/dXx29YIc7tdNZisk/mcEIi7sVVpEYniiybV5T+7rs74vH1+Yw5Ve07ZO+tgVERyIuLC9zsBPGQrTahLNPHJDu61Gv2CHO6gTf6fguxBCsYKqXjBluJjGb7cPgy3AjvkuaF0BOptGhQsX1/apai1LDg74LlSZHUDKUJjKu79nVp2XB8SuGvgu7FeNgynDxTdusbrBLqDGfBdeqdWzycJFOfhcNZ7ABSiMbqlSAkFDJownjOfdtzM7bvQncMHshjac7+aCaVT0bnFtiyo7oAj/A0XMGdFj95RWdjCpNDpouMgerj7ZNiv4q4oYFzQOX3llu0j6Dsgd3u8/zTvR6he8TcS44AlFtpzr5GfweJG8+/zhjsvKBOsCjuNHVGPCGN6imck61CCbcCZ2IYJFf/ejHAzgLZpx1sH6vzUbhBaIp7sGXf4XL/U8+N9bP/tiUenVK4oJr3iSOmZdYH1ywchb1erSI40rv6rL+bL2vlbugbribxoOdJkj8e6xzP3/ALb54JtG+/eaiftal/XWIZc/ze8j2L74KQzEz4ifAjnIuOQC4caSC4QL/wOB/41946SbhQAAAABJRU5ErkJggg==;" vertex="1" parent="1">
          <mxGeometry x="90" y="260" width="87" height="95" as="geometry" />
        </mxCell>
        <mxCell id="XiYlLXEE49jbWk-wVxOw-6" style="edgeStyle=orthogonalEdgeStyle;rounded=0;orthogonalLoop=1;jettySize=auto;html=1;exitX=1;exitY=0.25;exitDx=0;exitDy=0;entryX=0;entryY=0.25;entryDx=0;entryDy=0;" edge="1" parent="1" source="XiYlLXEE49jbWk-wVxOw-3" target="XiYlLXEE49jbWk-wVxOw-4">
          <mxGeometry relative="1" as="geometry">
            <Array as="points">
              <mxPoint x="660" y="278" />
              <mxPoint x="660" y="278" />
            </Array>
          </mxGeometry>
        </mxCell>
        <mxCell id="XiYlLXEE49jbWk-wVxOw-9" value="&lt;font style=&quot;font-size: 20px;&quot;&gt;Iniciar SesiÃ³n&lt;/font&gt;" style="edgeLabel;html=1;align=center;verticalAlign=middle;resizable=0;points=[];" vertex="1" connectable="0" parent="XiYlLXEE49jbWk-wVxOw-6">
          <mxGeometry x="0.2344" y="4" relative="1" as="geometry">
            <mxPoint x="-20" as="offset" />
          </mxGeometry>
        </mxCell>
        <mxCell id="XiYlLXEE49jbWk-wVxOw-3" value="&lt;font style=&quot;font-size: 28px;&quot;&gt;Frontend&lt;/font&gt;&lt;div&gt;&lt;font style=&quot;font-size: 28px;&quot;&gt;Azure Static Web Apps or Blob&lt;/font&gt;&lt;/div&gt;" style="rounded=0;whiteSpace=wrap;html=1;" vertex="1" parent="1">
          <mxGeometry x="270" y="247.5" width="290" height="120" as="geometry" />
        </mxCell>
        <mxCell id="XiYlLXEE49jbWk-wVxOw-8" style="edgeStyle=orthogonalEdgeStyle;rounded=0;orthogonalLoop=1;jettySize=auto;html=1;exitX=0;exitY=0.75;exitDx=0;exitDy=0;entryX=1;entryY=0.75;entryDx=0;entryDy=0;" edge="1" parent="1" source="XiYlLXEE49jbWk-wVxOw-4" target="XiYlLXEE49jbWk-wVxOw-3">
          <mxGeometry relative="1" as="geometry">
            <Array as="points">
              <mxPoint x="700" y="338" />
              <mxPoint x="700" y="338" />
            </Array>
          </mxGeometry>
        </mxCell>
        <mxCell id="XiYlLXEE49jbWk-wVxOw-10" value="&lt;font style=&quot;font-size: 20px;&quot;&gt;Token JWT&lt;/font&gt;" style="edgeLabel;html=1;align=center;verticalAlign=middle;resizable=0;points=[];" vertex="1" connectable="0" parent="XiYlLXEE49jbWk-wVxOw-8">
          <mxGeometry x="0.2894" y="1" relative="1" as="geometry">
            <mxPoint x="19" as="offset" />
          </mxGeometry>
        </mxCell>
        <mxCell id="XiYlLXEE49jbWk-wVxOw-4" value="&lt;span style=&quot;font-size: 28px;&quot;&gt;Azure AD B2C&lt;/span&gt;&lt;div&gt;&lt;span style=&quot;font-size: 28px;&quot;&gt;Microsoft Entra&lt;/span&gt;&lt;/div&gt;" style="rounded=0;whiteSpace=wrap;html=1;" vertex="1" parent="1">
          <mxGeometry x="730" y="247.5" width="230" height="120" as="geometry" />
        </mxCell>
        <mxCell id="XiYlLXEE49jbWk-wVxOw-14" value="" style="shape=flexArrow;endArrow=classic;html=1;rounded=0;exitX=1;exitY=0.5;exitDx=0;exitDy=0;entryX=0;entryY=0.5;entryDx=0;entryDy=0;" edge="1" parent="1" source="XiYlLXEE49jbWk-wVxOw-1" target="XiYlLXEE49jbWk-wVxOw-3">
          <mxGeometry width="50" height="50" relative="1" as="geometry">
            <mxPoint x="180" y="530" as="sourcePoint" />
            <mxPoint x="230" y="480" as="targetPoint" />
          </mxGeometry>
        </mxCell>
        <mxCell id="XiYlLXEE49jbWk-wVxOw-25" value="" style="edgeStyle=orthogonalEdgeStyle;rounded=0;orthogonalLoop=1;jettySize=auto;html=1;" edge="1" parent="1" source="XiYlLXEE49jbWk-wVxOw-15" target="XiYlLXEE49jbWk-wVxOw-3">
          <mxGeometry relative="1" as="geometry" />
        </mxCell>
        <mxCell id="XiYlLXEE49jbWk-wVxOw-15" value="&lt;font style=&quot;font-size: 28px;&quot;&gt;Backend&lt;/font&gt;&lt;div&gt;&lt;font style=&quot;font-size: 28px;&quot;&gt;(Azure Functions)&lt;/font&gt;&lt;/div&gt;" style="rounded=1;whiteSpace=wrap;html=1;" vertex="1" parent="1">
          <mxGeometry x="270" y="464" width="290" height="120" as="geometry" />
        </mxCell>
        <mxCell id="XiYlLXEE49jbWk-wVxOw-20" value="" style="endArrow=classic;startArrow=classic;html=1;rounded=0;sourcePerimeterSpacing=0;strokeWidth=5;exitX=0.5;exitY=0;exitDx=0;exitDy=0;entryX=0.5;entryY=1;entryDx=0;entryDy=0;" edge="1" parent="1" source="XiYlLXEE49jbWk-wVxOw-15" target="XiYlLXEE49jbWk-wVxOw-3">
          <mxGeometry width="50" height="50" relative="1" as="geometry">
            <mxPoint x="445" y="419.28932188134524" as="sourcePoint" />
            <mxPoint x="445" y="369.28932188134524" as="targetPoint" />
            <Array as="points" />
          </mxGeometry>
        </mxCell>
        <mxCell id="XiYlLXEE49jbWk-wVxOw-26" value="&lt;font style=&quot;font-size: 24px;&quot;&gt;Llamadas API&lt;/font&gt;" style="edgeLabel;html=1;align=center;verticalAlign=middle;resizable=0;points=[];" vertex="1" connectable="0" parent="XiYlLXEE49jbWk-wVxOw-20">
          <mxGeometry x="0.0017" y="-2" relative="1" as="geometry">
            <mxPoint as="offset" />
          </mxGeometry>
        </mxCell>
        <mxCell id="XiYlLXEE49jbWk-wVxOw-21" value="&lt;strong data-end=&quot;370&quot; data-start=&quot;346&quot;&gt;&lt;font style=&quot;font-size: 20px;&quot;&gt;Database (Azure SQL)&lt;/font&gt;&lt;/strong&gt;" style="shape=cylinder3;whiteSpace=wrap;html=1;boundedLbl=1;backgroundOutline=1;size=15;" vertex="1" parent="1">
          <mxGeometry x="280" y="670" width="110" height="130" as="geometry" />
        </mxCell>
        <mxCell id="XiYlLXEE49jbWk-wVxOw-22" value="&lt;font style=&quot;font-size: 20px;&quot;&gt;Blob Storage&lt;/font&gt;&lt;div&gt;&lt;font style=&quot;font-size: 20px;&quot;&gt;(imÃ¡genes, archivos)&lt;/font&gt;&lt;/div&gt;" style="rounded=1;whiteSpace=wrap;html=1;" vertex="1" parent="1">
          <mxGeometry x="440" y="670" width="120" height="130" as="geometry" />
        </mxCell>
        <mxCell id="XiYlLXEE49jbWk-wVxOw-23" value="" style="endArrow=classic;html=1;rounded=0;exitX=0.5;exitY=0;exitDx=0;exitDy=0;exitPerimeter=0;entryX=0.5;entryY=1;entryDx=0;entryDy=0;" edge="1" parent="1" source="XiYlLXEE49jbWk-wVxOw-21" target="XiYlLXEE49jbWk-wVxOw-15">
          <mxGeometry width="50" height="50" relative="1" as="geometry">
            <mxPoint x="340" y="730" as="sourcePoint" />
            <mxPoint x="390" y="680" as="targetPoint" />
            <Array as="points">
              <mxPoint x="415" y="640" />
            </Array>
          </mxGeometry>
        </mxCell>
        <mxCell id="XiYlLXEE49jbWk-wVxOw-24" value="" style="endArrow=classic;html=1;rounded=0;exitX=0.5;exitY=0;exitDx=0;exitDy=0;entryX=0.5;entryY=1;entryDx=0;entryDy=0;" edge="1" parent="1" source="XiYlLXEE49jbWk-wVxOw-22" target="XiYlLXEE49jbWk-wVxOw-15">
          <mxGeometry width="50" height="50" relative="1" as="geometry">
            <mxPoint x="480" y="660" as="sourcePoint" />
            <mxPoint x="530" y="610" as="targetPoint" />
            <Array as="points">
              <mxPoint x="415" y="640" />
            </Array>
          </mxGeometry>
        </mxCell>
      </root>
    </mxGraphModel>
  </diagram>
</mxfile>
